<?xml version="1.0" encoding="UTF-8"?>
<svg version="1.1" xmlns="http://www.w3.org/2000/svg" width="1419" height="340">
<path d="M0 0 C6.6 0 13.2 0 20 0 C26.29089649 6.29089649 26.29089649 6.29089649 27.86328125 9.24609375 C29.93116251 12.93744736 32.30699765 16.28385469 34.8125 19.6875 C35.64430269 20.85638602 36.47366288 22.02701338 37.30078125 23.19921875 C40.83327989 28.18588755 44.42245476 33.13155385 48.00708008 38.08081055 C53.03619886 45.03199843 58.012736 52.0178304 63 59 C63.33 39.53 63.66 20.06 64 0 C70.27 0 76.54 0 83 0 C84.85347368 1.85347368 84.12654303 4.48525326 84.13552856 6.95175171 C84.13249222 8.23440414 84.13249222 8.23440414 84.12939453 9.54296875 C84.13202301 10.88677109 84.13202301 10.88677109 84.13470459 12.25772095 C84.13912447 15.23433337 84.13618464 18.21088692 84.1328125 21.1875 C84.1334855 23.24633801 84.13445549 25.30517594 84.13571167 27.36401367 C84.13718883 31.68506627 84.13503351 36.00609823 84.13037109 40.32714844 C84.1246738 45.87936546 84.12795271 51.43153414 84.13394356 56.98374939 C84.13754869 61.23694221 84.13641081 65.49012349 84.13381577 69.74331665 C84.13314636 71.79114793 84.13397538 73.83898023 84.13629532 75.8868103 C84.13882106 78.74357908 84.13498236 81.60026843 84.12939453 84.45703125 C84.13141876 85.31213287 84.13344299 86.1672345 84.13552856 87.04824829 C84.11426239 92.88573761 84.11426239 92.88573761 83 94 C76.64899694 95.29262368 70.25088132 96.13129313 64 94 C58.51808416 89.79793415 55.13354605 83.46807979 51.62207031 77.63378906 C49.13357132 73.59316186 46.31810974 69.81423917 43.5 66 C42.43853563 64.52977701 41.3786528 63.05841096 40.3203125 61.5859375 C33.63381049 52.32801399 26.85203728 43.13604971 20 34 C19.67 53.8 19.34 73.6 19 94 C12.73 94 6.46 94 0 94 C0 62.98 0 31.96 0 0 Z " fill="#FFFFFF" transform="translate(545,43)"/>
<path d="M0 0 C6.93 0 13.86 0 21 0 C28.7391221 8.71522759 28.7391221 8.71522759 30.96484375 12.80078125 C33.94106049 18.01183963 37.37698055 22.72456258 41 27.5 C42.16542416 29.07224775 43.32818465 30.64647341 44.48828125 32.22265625 C45.35187256 33.39465576 45.35187256 33.39465576 46.23291016 34.59033203 C49.79259441 39.44444692 53.310434 44.32884809 56.82617188 49.21484375 C57.58317383 50.26671875 57.58317383 50.26671875 58.35546875 51.33984375 C58.79528076 51.95206787 59.23509277 52.56429199 59.68823242 53.19506836 C61.10529565 55.14488195 62.55378327 57.07171102 64 59 C64.33 39.53 64.66 20.06 65 0 C71.27 0 77.54 0 84 0 C84 31.02 84 62.04 84 94 C65 94 65 94 60.4375 89.875 C59.25108575 87.94098224 58.10783924 85.98007467 57 84 C55.86458542 82.39448395 54.72791988 80.78960158 53.5637207 79.20483398 C52.272979 77.44615119 51.01110819 75.66950916 49.75390625 73.88671875 C40.02024974 60.12412576 29.99913063 46.57024871 20 33 C19.67 53.13 19.34 73.26 19 94 C12.73 94 6.46 94 0 94 C0 62.98 0 31.96 0 0 Z " fill="#FFFFFF" transform="translate(822,203)"/>
<path d="M0 0 C6.6 0 13.2 0 20 0 C27.1911642 7.6798841 27.1911642 7.6798841 29.21875 11.3125 C31.99624211 16.07391505 35.16013946 20.44864341 38.4375 24.875 C39.52204599 26.37709375 40.60406184 27.88101742 41.68359375 29.38671875 C45.11335036 34.16019661 48.55626487 38.92410153 52 43.6875 C53.04188911 45.12874547 54.08356645 46.57014406 55.125 48.01171875 C55.56070312 48.61459717 55.99640625 49.21747559 56.4453125 49.83862305 C58.63793237 52.88687426 60.81749761 55.94449666 63 59 C63.33 39.53 63.66 20.06 64 0 C70.27 0 76.54 0 83 0 C83 31.02 83 62.04 83 94 C76.73 94 70.46 94 64 94 C56.87824593 86.31967698 56.87824593 86.31967698 54.81640625 82.6875 C52.00942878 77.94164166 48.8383411 73.55504614 45.5625 69.125 C44.47672887 67.6215492 43.39341019 66.11632437 42.3125 64.609375 C38.90059546 59.86114118 35.48309549 55.11697622 32.0625 50.375 C31.54308838 49.65328613 31.02367676 48.93157227 30.48852539 48.18798828 C29.98828857 47.49431152 29.48805176 46.80063477 28.97265625 46.0859375 C28.54218994 45.4882959 28.11172363 44.8906543 27.66821289 44.27490234 C25.14099237 40.82859167 22.56417712 37.41890282 20 34 C19.67 53.8 19.34 73.6 19 94 C12.73 94 6.46 94 0 94 C0 62.98 0 31.96 0 0 Z " fill="#FFFFFF" transform="translate(1328,203)"/>
<path d="M0 0 C11.42506529 9.67790388 15.87779576 21.36052011 17.578125 35.9375 C18.05724856 50.04039781 13.52455607 63.96809359 3.9140625 74.40234375 C-8.33272508 85.71144226 -22.33991359 87.72358517 -38.29492188 87.13623047 C-47.57656132 86.46409912 -55.6270189 82.77987941 -62.76953125 76.95703125 C-63.45660156 76.4053125 -64.14367188 75.85359375 -64.8515625 75.28515625 C-73.09064332 67.91251796 -78.30875983 57.08845974 -79.62109375 46.15234375 C-80.33758306 30.72896851 -78.00696332 17.04434838 -67.76953125 4.95703125 C-50.27886746 -14.044705 -20.22848481 -14.92171729 0 0 Z M-52.76953125 16.95703125 C-58.71108893 25.72082883 -60.80969434 34.42373409 -59.76953125 44.95703125 C-57.70765961 54.24162691 -53.13334526 60.4288412 -45.83203125 66.33203125 C-38.99712889 69.95871414 -31.58502468 71.22788187 -24.03125 69.234375 C-15.12308528 66.25695053 -10.32644542 62.68141466 -5.84765625 54.3359375 C-1.73750951 45.26680936 -1.23871984 35.60093373 -4.33203125 26.08203125 C-7.57003464 18.36763019 -12.31826986 13.06229383 -19.97265625 9.6484375 C-31.84072249 5.08181201 -43.97477576 7.96239495 -52.76953125 16.95703125 Z " fill="#FFFFFF" transform="translate(1296.76953125,211.04296875)"/>
<path d="M0 0 C9.4929539 7.9977784 14.62532214 17.27712033 17.12890625 29.33984375 C18.4398305 44.80874995 16.58983495 59.71284727 6.44140625 72.02734375 C-2.02748851 81.18886187 -12.70814052 86.76147064 -25.2578125 87.36328125 C-41.76046343 87.66186784 -54.30312869 84.71839877 -66.74609375 73.40234375 C-76.22888447 63.54099851 -79.42653465 50.33596666 -79.55859375 37.02734375 C-78.6195528 23.1504052 -74.16008984 10.91926148 -63.80859375 1.27734375 C-45.82403267 -13.57197775 -18.42673515 -14.20687214 0 0 Z M-53.05859375 17.71484375 C-58.8590418 26.74157652 -61.13772303 36.16577928 -59.015625 46.73046875 C-56.64083738 55.49487831 -52.08403616 61.90693963 -44.55859375 67.02734375 C-36.55062949 70.63728319 -29.20849004 71.08697531 -20.93359375 68.33984375 C-12.97118553 65.18347474 -8.46600666 60.6357402 -4.55859375 53.02734375 C-1.09285804 44.77559205 -1.382932 34.59011257 -4.12109375 26.15234375 C-7.35909714 18.43794269 -12.10733236 13.13260633 -19.76171875 9.71875 C-31.46604476 5.2151289 -44.91459298 7.81549445 -53.05859375 17.71484375 Z " fill="#FFFFFF" transform="translate(697.55859375,210.97265625)"/>
<path d="M0 0 C49.80861244 0 49.80861244 0 59.671875 9.6328125 C64.19250188 15.3500759 65.29932467 21.91372171 64.9375 29.0625 C64.08361883 35.66721942 60.7345728 40.4730839 56 45 C56.54269531 45.43570313 57.08539063 45.87140625 57.64453125 46.3203125 C64.1338406 51.72222407 67.33309635 56.42433002 68.1953125 64.92578125 C68.58475361 72.23429269 66.91645951 79.28751861 62.33984375 85.11328125 C46.13249576 100.65502974 19.11445726 94 0 94 C0 62.98 0 31.96 0 0 Z M19 16 C19 23.26 19 30.52 19 38 C21.84625 38.0825 24.6925 38.165 27.625 38.25 C28.95265381 38.30462402 28.95265381 38.30462402 30.30712891 38.36035156 C35.67714356 38.43528762 38.81539696 37.68245068 43 34 C45.54994747 30.36956632 45.13185016 27.35910588 44.546875 23.125 C43.7792448 20.14220836 42.49076863 18.75818962 40 17 C37.23434618 16.07811539 35.61716298 15.88214778 32.76953125 15.90234375 C31.68442261 15.90609009 31.68442261 15.90609009 30.57739258 15.90991211 C29.20877075 15.92356812 29.20877075 15.92356812 27.8125 15.9375 C24.904375 15.958125 21.99625 15.97875 19 16 Z M19 54 C19 61.59 19 69.18 19 77 C23.764375 77.0928125 23.764375 77.0928125 28.625 77.1875 C29.6145166 77.21481201 30.6040332 77.24212402 31.62353516 77.27026367 C36.84402898 77.31933441 40.50410849 76.96643475 45 74 C47.44340191 71.06791771 47.96659534 69.31177679 48.375 65.5 C47.96659534 61.68822321 47.44340191 59.93208229 45 57 C39.6187321 53.44938495 34.82386003 53.64140298 28.625 53.8125 C25.44875 53.874375 22.2725 53.93625 19 54 Z " fill="#FFFFFF" transform="translate(385,43)"/>
<path d="M0 0 C52.16594828 0 52.16594828 0 66.66796875 13.56640625 C77.51324394 24.88400499 79.50460966 36.86068426 79.2734375 51.96484375 C78.81080035 64.29343676 73.16346661 74.27673156 64.375 82.75 C46.08042032 97.71829246 22.38756709 94 0 94 C0 62.98 0 31.96 0 0 Z M19 18 C19 37.14 19 56.28 19 76 C37.41944822 76.25349745 37.41944822 76.25349745 52 67 C57.998175 59.80219 60.81768253 52.48511732 60 43 C58.15921575 34.11246354 55.06830286 27.92263981 47.5625 22.6875 C38.1145881 16.51846987 31.09713793 18 19 18 Z " fill="#FFFFFF" transform="translate(925,203)"/>
<path d="M0 0 C0.83265381 0.00523682 1.66530762 0.01047363 2.52319336 0.01586914 C3.42231445 0.0190918 4.32143555 0.02231445 5.24780273 0.02563477 C6.66609375 0.03820313 6.66609375 0.03820313 8.11303711 0.05102539 C9.06243164 0.05553711 10.01182617 0.06004883 10.98999023 0.06469727 C13.34356776 0.07652429 15.69702188 0.09300514 18.05053711 0.11352539 C22.28227532 8.96103176 25.82639159 18.04317226 29.35400391 27.18600464 C31.09616258 31.70100085 32.84792133 36.21225852 34.60131836 40.72290039 C35.14334396 42.11749733 35.14334396 42.11749733 35.69631958 43.54026794 C38.31098386 50.25221059 40.97039139 56.94530354 43.65600586 63.62915039 C44.02695877 64.55262772 44.39791168 65.47610504 44.78010559 66.42756653 C46.57233551 70.88520583 48.37001924 75.34058433 50.17285156 79.79394531 C50.8196459 81.3991434 51.46637788 83.00436662 52.11303711 84.60961914 C52.41223557 85.34412292 52.71143402 86.07862671 53.0196991 86.83538818 C55.05053711 91.88724822 55.05053711 91.88724822 55.05053711 94.11352539 C48.12053711 94.11352539 41.19053711 94.11352539 34.05053711 94.11352539 C32.89553711 91.18477539 31.74053711 88.25602539 30.55053711 85.23852539 C30.18508789 84.31700684 29.81963867 83.39548828 29.44311523 82.44604492 C29.01675781 81.35718994 29.01675781 81.35718994 28.58178711 80.24633789 C28.14189453 79.130896 28.14189453 79.130896 27.69311523 77.99291992 C27.05053711 76.11352539 27.05053711 76.11352539 27.05053711 74.11352539 C14.51053711 74.44352539 1.97053711 74.77352539 -10.94946289 75.11352539 C-13.21104221 80.99119193 -13.21104221 80.99119193 -15.46679688 86.87109375 C-15.7485376 87.59949463 -16.03027832 88.32789551 -16.32055664 89.07836914 C-16.60858154 89.82723389 -16.89660645 90.57609863 -17.19335938 91.34765625 C-17.94946289 93.11352539 -17.94946289 93.11352539 -18.94946289 94.11352539 C-20.43818149 94.20021971 -21.93090789 94.22056033 -23.42211914 94.21118164 C-24.32124023 94.20795898 -25.22036133 94.20473633 -26.14672852 94.20141602 C-27.56501953 94.18884766 -27.56501953 94.18884766 -29.01196289 94.17602539 C-29.96135742 94.17151367 -30.91075195 94.16700195 -31.88891602 94.16235352 C-34.24249354 94.15052649 -36.59594766 94.13404564 -38.94946289 94.11352539 C-36.83145208 86.44880048 -34.07682855 79.15845948 -31.07446289 71.80102539 C-30.01589868 69.18747987 -28.96108571 66.57242607 -27.90649414 63.95727539 C-27.61274399 63.22981613 -27.31899384 62.50235687 -27.01634216 61.75285339 C-24.15224008 54.64660086 -21.33664175 47.52139926 -18.52368164 40.39477539 C-17.81441528 38.59892754 -17.81441528 38.59892754 -17.09082031 36.76679993 C-15.16447055 31.88879903 -13.23840264 27.01069309 -11.31646729 22.13095093 C-9.95295201 18.66979879 -8.58626675 15.20991337 -7.21899414 11.75024414 C-6.59476814 10.16167603 -6.59476814 10.16167603 -5.95793152 8.54101562 C-5.5759108 7.57583008 -5.19389008 6.61064453 -4.80029297 5.61621094 C-4.46564529 4.76737839 -4.13099762 3.91854584 -3.78620911 3.04399109 C-2.5306911 0.14737274 -2.5306911 0.14737274 0 0 Z M7.05053711 26.11352539 C5.47742331 30.04364747 3.91103878 33.97636371 2.35083008 37.91162109 C1.8191439 39.24991965 1.28562704 40.58749242 0.75024414 41.92431641 C-0.01907289 43.84618169 -0.78176443 45.77056255 -1.54321289 47.69555664 C-2.23447266 49.43156128 -2.23447266 49.43156128 -2.93969727 51.20263672 C-4.11332976 54.0724013 -4.11332976 54.0724013 -3.94946289 57.11352539 C3.97053711 57.11352539 11.89053711 57.11352539 20.05053711 57.11352539 C17.72097442 49.229783 17.72097442 49.229783 15.00756836 41.54321289 C14.65629883 40.62797852 14.3050293 39.71274414 13.94311523 38.76977539 C13.58668945 37.85196289 13.23026367 36.93415039 12.86303711 35.98852539 C12.49500977 35.03204102 12.12698242 34.07555664 11.74780273 33.09008789 C10.85198266 30.7632825 9.95285938 28.43781518 9.05053711 26.11352539 C8.39053711 26.11352539 7.73053711 26.11352539 7.05053711 26.11352539 Z " fill="#FFFFFF" transform="translate(1002.949462890625,42.886474609375)"/>
<path d="M0 0 C0.87454834 0.00523682 1.74909668 0.01047363 2.65014648 0.01586914 C3.59438477 0.0190918 4.53862305 0.02231445 5.51147461 0.02563477 C6.50469727 0.03401367 7.49791992 0.04239258 8.52124023 0.05102539 C9.51833008 0.05553711 10.51541992 0.06004883 11.54272461 0.06469727 C14.01478872 0.07652532 16.48673541 0.0930069 18.95874023 0.11352539 C19.37047485 1.18437378 19.37047485 1.18437378 19.79052734 2.27685547 C27.05940487 21.162281 34.44708405 39.99879519 41.90576172 58.81005859 C43.59539923 63.07183124 45.28210092 67.33475142 46.96563721 71.59893799 C47.64120477 73.30950943 48.3176288 75.01974281 48.99481201 76.72967529 C49.99018967 79.24558726 50.98094173 81.76327245 51.97045898 84.28149414 C52.2728096 85.04359695 52.57516022 85.80569977 52.88667297 86.59089661 C54.95874023 91.88474669 54.95874023 91.88474669 54.95874023 94.11352539 C48.35874023 94.11352539 41.75874023 94.11352539 34.95874023 94.11352539 C30.33805058 83.71697367 30.33805058 83.71697367 28.70874023 79.67602539 C28.20600586 78.44045898 28.20600586 78.44045898 27.69311523 77.17993164 C26.95874023 75.11352539 26.95874023 75.11352539 26.95874023 73.11352539 C14.41874023 73.11352539 1.87874023 73.11352539 -11.04125977 73.11352539 C-12.03125977 76.41352539 -13.02125977 79.71352539 -14.04125977 83.11352539 C-14.71695222 84.97983454 -15.41690964 86.83805245 -16.16625977 88.67602539 C-16.49883789 89.50231445 -16.83141602 90.32860352 -17.17407227 91.17993164 C-18.04125977 93.11352539 -18.04125977 93.11352539 -19.04125977 94.11352539 C-20.52997836 94.20021971 -22.02270476 94.22056033 -23.51391602 94.21118164 C-24.41303711 94.20795898 -25.3121582 94.20473633 -26.23852539 94.20141602 C-27.65681641 94.18884766 -27.65681641 94.18884766 -29.10375977 94.17602539 C-30.0531543 94.17151367 -31.00254883 94.16700195 -31.98071289 94.16235352 C-34.33429346 94.15052648 -36.68773558 94.13320633 -39.04125977 94.11352539 C-36.87876878 86.30666632 -34.07980181 78.84338716 -31.06860352 71.32836914 C-30.58605606 70.11443985 -30.10350861 68.90051056 -29.6063385 67.64979553 C-28.32669333 64.43086855 -27.04201308 61.21397503 -25.75622559 57.99749756 C-24.48418608 54.81280516 -23.21704473 51.6261659 -21.94946289 48.43969727 C-19.96039923 43.44121014 -17.96696451 38.44449418 -15.97045898 33.44897461 C-14.00718839 28.53650865 -12.05099597 23.62134063 -10.1003418 18.70385742 C-9.63769424 17.540121 -9.17504669 16.37638458 -8.69837952 15.17738342 C-7.82272639 12.97475181 -6.94897415 10.77136328 -6.07737732 8.56712341 C-5.69106644 7.59702835 -5.30475555 6.62693329 -4.90673828 5.62744141 C-4.56900894 4.77585953 -4.2312796 3.92427765 -3.88331604 3.04689026 C-2.61973268 0.14569737 -2.61973268 0.14569737 0 0 Z M6.95874023 25.11352539 C5.38794365 29.20534415 3.82147692 33.29878555 2.2590332 37.39379883 C1.72669814 38.78715907 1.19317446 40.1800658 0.65844727 41.57250977 C-0.10915733 43.57198445 -0.87249765 45.57304156 -1.63500977 47.57446289 C-2.09584961 48.77893066 -2.55668945 49.98339844 -3.03149414 51.22436523 C-4.1512368 53.9181046 -4.1512368 53.9181046 -4.04125977 56.11352539 C3.87874023 56.11352539 11.79874023 56.11352539 19.95874023 56.11352539 C17.62917754 48.229783 17.62917754 48.229783 14.91577148 40.54321289 C14.56450195 39.62797852 14.21323242 38.71274414 13.85131836 37.76977539 C13.49489258 36.85196289 13.1384668 35.93415039 12.77124023 34.98852539 C12.40321289 34.03204102 12.03518555 33.07555664 11.65600586 32.09008789 C10.76018578 29.7632825 9.86106251 27.43781518 8.95874023 25.11352539 C8.29874023 25.11352539 7.63874023 25.11352539 6.95874023 25.11352539 Z " fill="#FFFFFF" transform="translate(415.041259765625,202.886474609375)"/>
<path d="M0 0 C0.83265381 0.00523682 1.66530762 0.01047363 2.52319336 0.01586914 C3.42231445 0.0190918 4.32143555 0.02231445 5.24780273 0.02563477 C6.66609375 0.03820312 6.66609375 0.03820312 8.11303711 0.05102539 C9.06243164 0.05553711 10.01182617 0.06004883 10.98999023 0.06469727 C13.3435708 0.0765243 15.69701292 0.09384445 18.05053711 0.11352539 C21.23706237 6.23800087 23.86645881 12.45610827 26.35913086 18.89086914 C26.76275345 19.92353912 27.16637604 20.95620911 27.58222961 22.02017212 C28.8877146 25.36241757 30.18797318 28.70666799 31.48803711 32.05102539 C32.83408339 35.50291067 34.18123689 38.95436258 35.52841187 42.4058075 C36.42506132 44.70340439 37.32124151 47.00118446 38.21694946 49.29914856 C40.87768467 56.12268663 43.5557279 62.93897483 46.25756836 69.74633789 C46.56734116 70.52769608 46.87711395 71.30905426 47.1962738 72.11408997 C48.3407939 75.00035446 49.48541877 77.88655564 50.63644409 80.77023315 C51.39716343 82.67647924 52.15367309 84.58440371 52.90991211 86.49243164 C53.32724609 87.53987549 53.74458008 88.58731934 54.17456055 89.66650391 C55.05053711 92.11352539 55.05053711 92.11352539 55.05053711 94.11352539 C48.45053711 94.11352539 41.85053711 94.11352539 35.05053711 94.11352539 C30.42984745 83.71697367 30.42984745 83.71697367 28.80053711 79.67602539 C28.29780273 78.44045898 28.29780273 78.44045898 27.78491211 77.17993164 C27.05053711 75.11352539 27.05053711 75.11352539 27.05053711 73.11352539 C14.51053711 73.11352539 1.97053711 73.11352539 -10.94946289 73.11352539 C-11.93946289 76.41352539 -12.92946289 79.71352539 -13.94946289 83.11352539 C-14.62515534 84.97983454 -15.32511277 86.83805245 -16.07446289 88.67602539 C-16.40704102 89.50231445 -16.73961914 90.32860352 -17.08227539 91.17993164 C-17.94946289 93.11352539 -17.94946289 93.11352539 -18.94946289 94.11352539 C-20.43818149 94.20021971 -21.93090789 94.22056033 -23.42211914 94.21118164 C-24.32124023 94.20795898 -25.22036133 94.20473633 -26.14672852 94.20141602 C-27.56501953 94.18884766 -27.56501953 94.18884766 -29.01196289 94.17602539 C-29.96135742 94.17151367 -30.91075195 94.16700195 -31.88891602 94.16235352 C-34.24249658 94.15052648 -36.5959387 94.13320633 -38.94946289 94.11352539 C-36.88783553 86.75263175 -34.32699428 79.69013719 -31.48461914 72.59790039 C-31.05465134 71.51532959 -30.62468353 70.43275879 -30.1816864 69.31738281 C-28.795866 65.83112064 -27.40409595 62.34727102 -26.01196289 58.86352539 C-25.05949728 56.47205013 -24.10734985 54.08044811 -23.15551758 51.6887207 C-21.28144867 46.98170655 -19.40490368 42.27569205 -17.52612305 37.57055664 C-15.62551222 32.81007966 -13.73007978 28.04759376 -11.84007263 23.28289795 C-10.71280065 20.44116033 -9.58342824 17.60026169 -8.45333862 14.75964355 C-7.7139251 12.89990017 -6.97632906 11.03943451 -6.23876953 9.17895508 C-5.59282837 7.56102051 -5.59282837 7.56102051 -4.93383789 5.91040039 C-4.57 4.99613281 -4.20616211 4.08186523 -3.83129883 3.13989258 C-2.52896822 0.14727241 -2.52896822 0.14727241 0 0 Z M7.05053711 25.11352539 C5.47974053 29.20534415 3.91327379 33.29878555 2.35083008 37.39379883 C1.81849501 38.78715907 1.28497134 40.1800658 0.75024414 41.57250977 C-0.01736046 43.57198445 -0.78070077 45.57304156 -1.54321289 47.57446289 C-2.00405273 48.77893066 -2.46489258 49.98339844 -2.93969727 51.22436523 C-4.05943993 53.9181046 -4.05943993 53.9181046 -3.94946289 56.11352539 C3.97053711 56.11352539 11.89053711 56.11352539 20.05053711 56.11352539 C17.72097442 48.229783 17.72097442 48.229783 15.00756836 40.54321289 C14.65629883 39.62797852 14.3050293 38.71274414 13.94311523 37.76977539 C13.58668945 36.85196289 13.23026367 35.93415039 12.86303711 34.98852539 C12.49500977 34.03204102 12.12698242 33.07555664 11.74780273 32.09008789 C10.85198266 29.7632825 9.95285938 27.43781518 9.05053711 25.11352539 C8.39053711 25.11352539 7.73053711 25.11352539 7.05053711 25.11352539 Z " fill="#FFFFFF" transform="translate(1047.949462890625,202.886474609375)"/>
<path d="M0 0 C6.27 0 12.54 0 19 0 C19.01981934 1.74015381 19.03963867 3.48030762 19.06005859 5.27319336 C19.12810579 11.05278505 19.20490071 16.83222583 19.28752708 22.61162472 C19.33725932 26.11221876 19.38358919 29.61278596 19.421875 33.11352539 C19.46614689 37.1474825 19.52569977 41.18109322 19.5859375 45.21484375 C19.59748871 46.45894516 19.60903992 47.70304657 19.62094116 48.98484802 C19.77002069 60.72466816 19.77002069 60.72466816 24.125 71.375 C28.54323855 75.40904389 32.60442766 76.74333154 38.5 77.375 C45.48911262 76.6261665 50.47878839 74.5850261 55 69 C56.91969505 65.09915039 57.26766456 61.88234497 57.31884766 57.55737305 C57.33871735 56.27642258 57.35858704 54.99547211 57.37905884 53.67570496 C57.39093344 52.28771131 57.4025964 50.89971583 57.4140625 49.51171875 C57.43278405 48.08395785 57.4523582 46.6562079 57.4727478 45.22846985 C57.52397101 41.48194854 57.56364894 37.73539139 57.60089111 33.9887085 C57.64099253 30.16100268 57.69205679 26.33344465 57.7421875 22.50585938 C57.83883059 15.00400018 57.9222582 7.50208324 58 0 C64.27 0 70.54 0 77 0 C77.09070863 8.69337553 77.16394945 17.38643191 77.20724869 26.0801754 C77.22804004 30.11792085 77.25620073 34.1553231 77.30175781 38.19287109 C77.34552046 42.09623162 77.36920052 45.999264 77.37950897 49.9028511 C77.38684625 51.38507877 77.40117301 52.8672904 77.42292023 54.34937668 C77.59167699 66.33729646 75.97568664 76.35621943 67.61328125 85.51953125 C58.59383734 94.14587591 47.10446425 96.22270118 35 96 C24.74085019 95.2502929 15.30753887 91.30753887 8 84 C-0.24377451 73.91904146 -0.44005586 61.28045785 -0.29296875 48.828125 C-0.28735714 47.41038467 -0.28309447 45.99263842 -0.28010559 44.57489014 C-0.26877963 40.88577543 -0.23942207 37.19702841 -0.20599365 33.50805664 C-0.17502468 29.72677582 -0.1615436 25.94543422 -0.14648438 22.1640625 C-0.11453712 14.7758565 -0.06187362 7.3880271 0 0 Z " fill="#FFFFFF" transform="translate(727,203)"/>
<path d="M0 0 C6.85324779 4.87587701 12.82292984 10.51225746 16.3125 18.25 C15.8175 19.735 15.8175 19.735 15.3125 21.25 C13.02523857 22.32705454 10.87933676 23.19174289 8.5 24 C7.87029297 24.23332031 7.24058594 24.46664062 6.59179688 24.70703125 C4.00878401 25.61230543 1.78131903 26.27568871 -0.96875 26.125 C-3.2354841 24.97102628 -4.03073945 23.64758743 -5.375 21.5 C-9.33686976 15.8848309 -14.94592487 12.57708172 -21.6875 11.25 C-28.7147389 10.41602807 -34.47815472 11.92161632 -40.6875 15.25 C-47.13316258 20.40653006 -51.19036568 27.35413026 -52.4609375 35.48828125 C-53.31156989 45.85719671 -51.7006369 54.6061157 -45.6875 63.25 C-40.21610816 68.75345078 -34.28401115 71.52632072 -26.5 71.6875 C-19.0279444 71.55225917 -13.32112273 69.63433053 -7.80859375 64.5 C-5.22194048 61.60793466 -3.34657137 58.7601649 -1.6875 55.25 C4.41987442 57.01463072 10.38683507 58.94557475 16.3125 61.25 C15.16415326 69.86260057 8.66812697 76.57877719 2 81.6875 C-10.17283228 89.93797521 -23.29584674 91.75423784 -37.5625 89.1875 C-48.88640874 86.54115176 -58.02976051 80.85022258 -64.6875 71.25 C-72.84856141 57.44177556 -74.79257178 43.11495005 -72 27.375 C-70.04901956 20.48153578 -67.0336844 14.90959177 -62.6875 9.25 C-61.82125 7.950625 -61.82125 7.950625 -60.9375 6.625 C-45.19532652 -9.99173867 -19.00591152 -11.73046141 0 0 Z " fill="#FFFFFF" transform="translate(905.6875,48.75)"/>
<path d="M0 0 C19.8 0 39.6 0 60 0 C60 5.94 60 11.88 60 18 C46.47 18 32.94 18 19 18 C19 24.6 19 31.2 19 38 C30.55 38 42.1 38 54 38 C54 43.61 54 49.22 54 55 C42.45 55 30.9 55 19 55 C19 62.26 19 69.52 19 77 C32.53 77 46.06 77 60 77 C60 82.61 60 88.22 60 94 C40.2 94 20.4 94 0 94 C0 62.98 0 31.96 0 0 Z " fill="#FFFFFF" transform="translate(648,43)"/>
<path d="M0 0 C19.47 0 38.94 0 59 0 C59 5.94 59 11.88 59 18 C45.8 18 32.6 18 19 18 C19 24.6 19 31.2 19 38 C30.55 38 42.1 38 54 38 C54 43.61 54 49.22 54 55 C42.45 55 30.9 55 19 55 C19 62.26 19 69.52 19 77 C32.53 77 46.06 77 60 77 C60 82.61 60 88.22 60 94 C40.2 94 20.4 94 0 94 C0 62.98 0 31.96 0 0 Z " fill="#FFFFFF" transform="translate(467,43)"/>
<path d="M0 0 C1.12535156 0.00580078 1.12535156 0.00580078 2.2734375 0.01171875 C3.02367187 0.00785156 3.77390625 0.00398437 4.546875 0 C10.14682697 0.01010822 10.14682697 0.01010822 11.2734375 1.13671875 C11.50068331 2.81338861 11.67050115 4.49789681 11.81640625 6.18359375 C13.80244646 27.11718779 17.75935262 45.78726308 28.2734375 64.13671875 C28.82773437 65.11769531 29.38203125 66.09867187 29.953125 67.109375 C40.07958278 83.94642801 54.31736821 97.35163524 71.2734375 107.13671875 C72.18754395 107.66676514 72.18754395 107.66676514 73.12011719 108.20751953 C89.09638161 117.27524216 106.10401216 121.52036251 124.34375 122.8125 C128.2734375 123.13671875 128.2734375 123.13671875 131.2734375 124.13671875 C131.2734375 129.74671875 131.2734375 135.35671875 131.2734375 141.13671875 C94.54503742 142.0626448 61.51309291 128.43583995 34.4921875 103.578125 C8.00317307 77.94479503 -5.60686469 43.43559113 -6.80224609 6.81835938 C-6.82791861 4.92448514 -6.78386731 3.02989989 -6.7265625 1.13671875 C-4.90540247 -0.68444128 -2.41984486 0.00436795 0 0 Z " fill="#FFFFFF" transform="translate(8.7265625,164.86328125)"/>
<path d="M0 0 C36.72840008 -0.92592605 69.76034459 12.7008788 96.78125 37.55859375 C123.27026443 63.19192372 136.88030219 97.70112762 138.07568359 134.31835938 C138.10135611 136.21223361 138.05730481 138.10681886 138 140 C136.17883997 141.82116003 133.69328236 141.1323508 131.2734375 141.13671875 C130.52320313 141.13285156 129.77296875 141.12898437 129 141.125 C128.24976563 141.12886719 127.49953125 141.13273438 126.7265625 141.13671875 C121.12661053 141.12661053 121.12661053 141.12661053 120 140 C119.77275419 138.32333014 119.60293635 136.63882194 119.45703125 134.953125 C117.47099104 114.01953096 113.51408488 95.34945567 103 77 C102.44570312 76.01902344 101.89140625 75.03804688 101.3203125 74.02734375 C91.19385472 57.19029074 76.95606929 43.78508351 60 34 C59.08589355 33.46995361 59.08589355 33.46995361 58.15332031 32.92919922 C42.17705589 23.86147659 25.16942534 19.61635624 6.9296875 18.32421875 C3 18 3 18 0 17 C0 11.39 0 5.78 0 0 Z " fill="#FFFFFF" transform="translate(138,34)"/>
<path d="M0 0 C8.84752722 5.37853274 15.44550294 13.24512849 18.171875 23.3203125 C19.32225691 35.3591929 17.57243425 45.01745704 9.92578125 54.50390625 C3.02966662 61.64576216 -5.85360216 65.26927617 -15.703125 65.7578125 C-25.01633164 65.42101415 -34.22302822 61.96973879 -40.828125 55.3203125 C-47.79480475 46.90951462 -50.49328168 38.46673894 -50.1640625 27.58984375 C-49.11544022 17.38406645 -44.56196508 9.98534549 -36.828125 3.3203125 C-25.98154276 -3.49798703 -11.88184793 -5.70169213 0 0 Z " fill="#14C638" transform="translate(154.828125,138.6796875)"/>
<path d="M0 0 C20.13 0 40.26 0 61 0 C61 5.94 61 11.88 61 18 C47.14 18 33.28 18 19 18 C19 24.93 19 31.86 19 39 C30.55 39 42.1 39 54 39 C54 44.94 54 50.88 54 57 C42.45 57 30.9 57 19 57 C19 69.21 19 81.42 19 94 C12.73 94 6.46 94 0 94 C0 62.98 0 31.96 0 0 Z " fill="#FFFFFF" transform="translate(726,43)"/>
<path d="M0 0 C20.13 0 40.26 0 61 0 C61 5.61 61 11.22 61 17 C47.14 17 33.28 17 19 17 C19 24.26 19 31.52 19 39 C30.55 39 42.1 39 54 39 C54 44.61 54 50.22 54 56 C42.45 56 30.9 56 19 56 C19 68.54 19 81.08 19 94 C12.73 94 6.46 94 0 94 C0 62.98 0 31.96 0 0 Z " fill="#FFFFFF" transform="translate(550,203)"/>
<path d="M0 0 C24.75 0 49.5 0 75 0 C75 5.61 75 11.22 75 17 C66.09 17 57.18 17 48 17 C48 42.41 48 67.82 48 94 C41.4 94 34.8 94 28 94 C28 68.59 28 43.18 28 17 C18.76 17 9.52 17 0 17 C0 11.39 0 5.78 0 0 Z " fill="#FFFFFF" transform="translate(1098,203)"/>
<path d="M0 0 C6.27 0 12.54 0 19 0 C19 25.41 19 50.82 19 77 C32.53 77 46.06 77 60 77 C60 82.61 60 88.22 60 94 C40.2 94 20.4 94 0 94 C0 62.98 0 31.96 0 0 Z " fill="#FFFFFF" transform="translate(1068,43)"/>
<path d="M0 0 C6.6 0 13.2 0 20 0 C20 31.02 20 62.04 20 94 C13.4 94 6.8 94 0 94 C0 62.98 0 31.96 0 0 Z " fill="#FFFFFF" transform="translate(1184,203)"/>
<path d="M0 0 C6.27 0 12.54 0 19 0 C19 31.02 19 62.04 19 94 C12.73 94 6.46 94 0 94 C0 62.98 0 31.96 0 0 Z " fill="#FFFFFF" transform="translate(480,203)"/>
<path d="M0 0 C6.27 0 12.54 0 19 0 C19 31.02 19 62.04 19 94 C12.73 94 6.46 94 0 94 C0 62.98 0 31.96 0 0 Z " fill="#FFFFFF" transform="translate(935,43)"/>
<path d="M0 0 C6.27 0 12.54 0 19 0 C19 31.02 19 62.04 19 94 C12.73 94 6.46 94 0 94 C0 62.98 0 31.96 0 0 Z " fill="#FFFFFF" transform="translate(800,43)"/>
</svg>
