<?xml version="1.0" encoding="UTF-8"?>
<svg version="1.1" xmlns="http://www.w3.org/2000/svg" viewBox="0 0 300 300">
<path d="M0 0 C1.12535156 0.00580078 1.12535156 0.00580078 2.2734375 0.01171875 C3.02367187 0.00785156 3.77390625 0.00398437 4.546875 0 C10.14682697 0.01010822 10.14682697 0.01010822 11.2734375 1.13671875 C11.50068331 2.81338861 11.67050115 4.49789681 11.81640625 6.18359375 C13.80244646 27.11718779 17.75935262 45.78726308 28.2734375 64.13671875 C28.82773437 65.11769531 29.38203125 66.09867187 29.953125 67.109375 C40.07958278 83.94642801 54.31736821 97.35163524 71.2734375 107.13671875 C72.18754395 107.66676514 72.18754395 107.66676514 73.12011719 108.20751953 C89.09638161 117.27524216 106.10401216 121.52036251 124.34375 122.8125 C128.2734375 123.13671875 128.2734375 123.13671875 131.2734375 124.13671875 C131.2734375 129.74671875 131.2734375 135.35671875 131.2734375 141.13671875 C94.54503742 142.0626448 61.51309291 128.43583995 34.4921875 103.578125 C8.00317307 77.94479503 -5.60686469 43.43559113 -6.80224609 6.81835938 C-6.82791861 4.92448514 -6.78386731 3.02989989 -6.7265625 1.13671875 C-4.90540247 -0.68444128 -2.41984486 0.00436795 0 0 Z " fill="#AAAAAA" transform="translate(8.7265625,131.86328125)"/>
<path d="M0 0 C36.72840008 -0.92592605 69.76034459 12.7008788 96.78125 37.55859375 C118.70102792 58.77028895 136.18710058 90.48434417 137.07421875 121.60351562 C137.09808461 124.54896014 137.08741248 127.4920781 137.0625 130.4375 C137.05798828 131.45521484 137.05347656 132.47292969 137.04882812 133.52148438 C137.03712437 136.01438509 137.02072848 138.50716074 137 141 C134.35409986 141.02684679 131.70846904 141.04676357 129.0625 141.0625 C128.30775391 141.07087891 127.55300781 141.07925781 126.77539062 141.08789062 C124.85005687 141.09652441 122.92464419 141.05224333 121 141 C119.33792054 139.33792054 119.65512442 137.24177046 119.45703125 134.953125 C117.47099104 114.01953096 113.51408488 95.34945567 103 77 C102.44570312 76.01902344 101.89140625 75.03804688 101.3203125 74.02734375 C91.19385472 57.19029074 76.95606929 43.78508351 60 34 C59.08589355 33.46995361 59.08589355 33.46995361 58.15332031 32.92919922 C42.17705589 23.86147659 25.16942534 19.61635624 6.9296875 18.32421875 C3 18 3 18 0 17 C0 11.39 0 5.78 0 0 Z " fill="#AAAAAA" transform="translate(138,1)"/>
<path d="M0 0 C8.84752722 5.37853274 15.44550294 13.24512849 18.171875 23.3203125 C19.32225691 35.3591929 17.57243425 45.01745704 9.92578125 54.50390625 C3.02966662 61.64576216 -5.85360216 65.26927617 -15.703125 65.7578125 C-25.01633164 65.42101415 -34.22302822 61.96973879 -40.828125 55.3203125 C-47.79480475 46.90951462 -50.49328168 38.46673894 -50.1640625 27.58984375 C-49.11544022 17.38406645 -44.56196508 9.98534549 -36.828125 3.3203125 C-25.98154276 -3.49798703 -11.88184793 -5.70169213 0 0 Z " fill="#14C638" transform="translate(154.828125,105.6796875)"/>
</svg>
