<?xml version="1.0" encoding="UTF-8"?>
<svg version="1.1" xmlns="http://www.w3.org/2000/svg" width="130" height="67">
<path d="M0 0 C42.9 0 85.8 0 130 0 C130 22.11 130 44.22 130 67 C87.1 67 44.2 67 0 67 C0 44.89 0 22.78 0 0 Z " fill="#1C1F20" transform="translate(0,0)"/>
<path d="M0 0 C2.27024968 -0.08097324 4.54132075 -0.13917704 6.8125 -0.1875 C8.07707031 -0.22230469 9.34164062 -0.25710938 10.64453125 -0.29296875 C14 0 14 0 15.95703125 1.35546875 C17 3 17 3 16.875 5.5 C15.91608005 8.23977127 15.24069394 9.20447704 13 11 C10.51953125 11.73046875 10.51953125 11.73046875 7.8125 12.1875 C6.91144531 12.34605469 6.01039062 12.50460938 5.08203125 12.66796875 C4.39496094 12.77753906 3.70789062 12.88710938 3 13 C2.67 14.98 2.34 16.96 2 19 C2.66 19 3.32 19 4 19 C4 19.66 4 20.32 4 21 C1.03 21 -1.94 21 -5 21 C-5 20.34 -5 19.68 -5 19 C-3.68 19 -2.36 19 -1 19 C-0.95101562 18.28714844 -0.90203125 17.57429688 -0.8515625 16.83984375 C-0.41871477 11.29491509 0.24028816 6.27913551 2 1 C1.34 0.67 0.68 0.34 0 0 Z " fill="#B6B7B7" transform="translate(59,16)"/>
<path d="M0 0 C4.62 0 9.24 0 14 0 C14 7.26 14 14.52 14 22 C9.38 22 4.76 22 0 22 C0 21.34 0 20.68 0 20 C3.96 20 7.92 20 12 20 C12 17.36 12 14.72 12 12 C8.37 12 4.74 12 1 12 C1 11.67 1 11.34 1 11 C4.63 11 8.26 11 12 11 C12 8.36 12 5.72 12 3 C8.04 3 4.08 3 0 3 C0 2.01 0 1.02 0 0 Z " fill="#8A8C8C" transform="translate(20,15)"/>
<path d="M0 0 C3.63 0 7.26 0 11 0 C11.33 1.65 11.66 3.3 12 5 C11.01 5 10.02 5 9 5 C8.67 4.34 8.34 3.68 8 3 C6.50256881 4.49743119 6.66797307 5.98824239 6.4375 8.0625 C6.293125 9.361875 6.14875 10.66125 6 12 C6.99 11.67 7.98 11.34 9 11 C9.33 10.34 9.66 9.68 10 9 C10.66 9 11.32 9 12 9 C11 11 10 13 9 15 C5.37 14.67 1.74 14.34 -2 14 C-2 12.68 -2 11.36 -2 10 C-0.68 10.33 0.64 10.66 2 11 C2.66 8.03 3.32 5.06 4 2 C0.88214887 2.64644661 0.88214887 2.64644661 0 5 C-0.66 5 -1.32 5 -2 5 C-1.34 3.35 -0.68 1.7 0 0 Z " fill="#C0C0C0" transform="translate(39,23)"/>
<path d="M0 0 C1.51400391 0.01740234 1.51400391 0.01740234 3.05859375 0.03515625 C4.07050781 0.04417969 5.08242187 0.05320312 6.125 0.0625 C7.29869141 0.07990234 7.29869141 0.07990234 8.49609375 0.09765625 C8.49609375 1.74765625 8.49609375 3.39765625 8.49609375 5.09765625 C7.17609375 4.76765625 5.85609375 4.43765625 4.49609375 4.09765625 C3.83609375 6.73765625 3.17609375 9.37765625 2.49609375 12.09765625 C3.48609375 11.76765625 4.47609375 11.43765625 5.49609375 11.09765625 C5.82609375 10.43765625 6.15609375 9.77765625 6.49609375 9.09765625 C7.15609375 9.09765625 7.81609375 9.09765625 8.49609375 9.09765625 C7.83609375 10.74765625 7.17609375 12.39765625 6.49609375 14.09765625 C2.53609375 14.09765625 -1.42390625 14.09765625 -5.50390625 14.09765625 C-5.17390625 12.44765625 -4.84390625 10.79765625 -4.50390625 9.09765625 C-3.84390625 9.09765625 -3.18390625 9.09765625 -2.50390625 9.09765625 C-2.17390625 9.75765625 -1.84390625 10.41765625 -1.50390625 11.09765625 C-0.51390625 8.12765625 0.47609375 5.15765625 1.49609375 2.09765625 C-2.47532315 2.72607598 -2.47532315 2.72607598 -4.50390625 5.09765625 C-3.38261259 0.13192717 -3.38261259 0.13192717 0 0 Z " fill="#C0C0C1" transform="translate(94.50390625,22.90234375)"/>
<path d="M0 0 C3 1 3 1 5.1875 4.125 C8.10665516 10.3706343 7.90300961 17.28434028 7 24 C5.63803627 26.96013519 4.61340446 27.94661078 2 30 C1.34 30 0.68 30 0 30 C1 28 2 26 3 24 C3.15117044 21.02891938 3.23139614 18.09696703 3.25 15.125 C3.270625 14.30902344 3.29125 13.49304687 3.3125 12.65234375 C3.34219981 8.10084834 3.2863289 5.44199711 0 2 C0 1.34 0 0.68 0 0 Z " fill="#ACADAD" transform="translate(107,14)"/>
<path d="M0 0 C0.99 0 1.98 0 3 0 C2.88637738 1.4800841 2.75877092 2.95910074 2.625 4.4375 C2.55539063 5.26121094 2.48578125 6.08492187 2.4140625 6.93359375 C2.27742188 7.61550781 2.14078125 8.29742187 2 9 C1.01 9.495 1.01 9.495 0 10 C0 9.34 0 8.68 0 8 C-0.99 8 -1.98 8 -3 8 C-3 9.32 -3 10.64 -3 12 C-1.68 12.33 -0.36 12.66 1 13 C-0.65 13 -2.3 13 -4 13 C-4 12.34 -4 11.68 -4 11 C-4.66 11 -5.32 11 -6 11 C-5.4140625 4.84765625 -5.4140625 4.84765625 -5 3 C-4.34 2.67 -3.68 2.34 -3 2 C-2.34 2.33 -1.68 2.66 -1 3 C-0.67 2.01 -0.34 1.02 0 0 Z " fill="#333536" transform="translate(40,25)"/>
<path d="M0 0 C-2 4 -2 4 -3.05078125 5.75390625 C-5.66831483 11.94765855 -4.58602663 20.08407924 -2.5 26.3125 C-2.005 27.529375 -1.51 28.74625 -1 30 C-6.19961721 24.93370631 -7.26735391 22.47176864 -7.375 15.3125 C-7.4203359 10.57226314 -7.44576155 6.50714067 -4.625 2.5 C-2 0 -2 0 0 0 Z " fill="#B3B3B4" transform="translate(86,14)"/>
<path d="M0 0 C0.66 0 1.32 0 2 0 C1 6 0 12 -1 18 C-0.34 18 0.32 18 1 18 C1 18.66 1 19.32 1 20 C-1.97 20 -4.94 20 -8 20 C-8 19.34 -8 18.68 -8 18 C-6.68 18 -5.36 18 -4 18 C-3.96261719 17.28714844 -3.92523438 16.57429688 -3.88671875 15.83984375 C-3.47904918 9.9006577 -2.71337774 5.30878253 0 0 Z " fill="#C1C2C2" transform="translate(62,17)"/>
<path d="M0 0 C2.64 0 5.28 0 8 0 C7.74438677 2.3431213 7.40729228 4.67843403 7 7 C4.29120665 8.35439668 1.99066732 8.06501451 -1 8 C-0.67 5.36 -0.34 2.72 0 0 Z " fill="#26292A" transform="translate(64,18)"/>
<path d="M0 0 C2 0 2 0 3.625 1.5 C4.07875 1.995 4.5325 2.49 5 3 C5.66 2.34 6.32 1.68 7 1 C7 1.66 7 2.32 7 3 C7.99 2.67 8.98 2.34 10 2 C10.33 1.34 10.66 0.68 11 0 C11.66 0 12.32 0 13 0 C12.34 1.65 11.68 3.3 11 5 C7.04 5 3.08 5 -1 5 C-0.67 3.35 -0.34 1.7 0 0 Z " fill="#979899" transform="translate(90,32)"/>
<path d="M0 0 C3.63 0 7.26 0 11 0 C11.33 1.65 11.66 3.3 12 5 C11.01 5 10.02 5 9 5 C8.34 4.34 7.68 3.68 7 3 C6.34 2.67 5.68 2.34 5 2 C4.67 2.99 4.34 3.98 4 5 C4 4.01 4 3.02 4 2 C0.88214887 2.64644661 0.88214887 2.64644661 0 5 C-0.66 5 -1.32 5 -2 5 C-1.34 3.35 -0.68 1.7 0 0 Z " fill="#9B9D9D" transform="translate(39,23)"/>
<path d="M0 0 C3 1 3 1 4.70703125 3.10546875 C6.36062101 6.80731168 6.09981833 9.30176712 5.6875 13.3125 C5.56761719 14.56675781 5.44773437 15.82101563 5.32421875 17.11328125 C5.21722656 18.06589844 5.11023438 19.01851562 5 20 C4.67 20 4.34 20 4 20 C3.96261719 19.03578125 3.92523438 18.0715625 3.88671875 17.078125 C3.82097656 15.81484375 3.75523438 14.5515625 3.6875 13.25 C3.62949219 11.99703125 3.57148437 10.7440625 3.51171875 9.453125 C2.98709029 5.91288409 2.29081957 4.62860798 0 2 C0 1.34 0 0.68 0 0 Z " fill="#999B9B" transform="translate(107,14)"/>
<path d="M0 0 C1.125 3.75 1.125 3.75 0 6 C1.299375 5.87625 2.59875 5.7525 3.9375 5.625 C4.66839844 5.55539063 5.39929688 5.48578125 6.15234375 5.4140625 C6.76207031 5.27742188 7.37179688 5.14078125 8 5 C8.33 4.34 8.66 3.68 9 3 C9.33 3.99 9.66 4.98 10 6 C6.36576791 8.32590854 3.22911669 8.16265833 -1 8 C-0.67 5.36 -0.34 2.72 0 0 Z " fill="#A4A5A5" transform="translate(63,20)"/>
<path d="M0 0 C0.33 1.32 0.66 2.64 1 4 C1.99 3.67 2.98 3.34 4 3 C4.33 2.34 4.66 1.68 5 1 C5.66 1 6.32 1 7 1 C6 3 5 5 4 7 C1.69 6.67 -0.62 6.34 -3 6 C-2.01 5.67 -1.02 5.34 0 5 C0 3.35 0 1.7 0 0 Z " fill="#7B7D7D" transform="translate(44,31)"/>
<path d="M0 0 C0.66 0 1.32 0 2 0 C1.74445946 1.46109063 1.46999628 2.91888096 1.1875 4.375 C1.03667969 5.18710937 0.88585938 5.99921875 0.73046875 6.8359375 C0 9 0 9 -3 11 C-2.44894091 7.0507432 -1.61064629 3.65079826 0 0 Z " fill="#D2D2D2" transform="translate(62,17)"/>
<path d="M0 0 C-0.33 2.31 -0.66 4.62 -1 7 C-1.33 5.68 -1.66 4.36 -2 3 C-3.65 3.33 -5.3 3.66 -7 4 C-6.67 3.01 -6.34 2.02 -6 1 C-4 0 -4 0 0 0 Z " fill="#484A4B" transform="translate(96,25)"/>
<path d="M0 0 C0 1.65 0 3.3 0 5 C-1.65 4.67 -3.3 4.34 -5 4 C-5.33 3.01 -5.66 2.02 -6 1 C-4 0 -4 0 0 0 Z " fill="#A2A3A4" transform="translate(103,23)"/>
</svg>
