<?xml version="1.0" encoding="UTF-8"?>
<svg version="1.1" xmlns="http://www.w3.org/2000/svg" width="109" height="78">
<path d="M0 0 C35.97 0 71.94 0 109 0 C109 25.74 109 51.48 109 78 C73.03 78 37.06 78 0 78 C0 52.26 0 26.52 0 0 Z " fill="#1C1F20" transform="translate(0,0)"/>
<path d="M0 0 C2.08268593 -0.08126087 4.16628658 -0.13930839 6.25 -0.1875 C7.99023438 -0.23970703 7.99023438 -0.23970703 9.765625 -0.29296875 C13.24754635 0.02242268 14.57089805 0.54156107 17 3 C17.625 5.375 17.625 5.375 17 8 C14.38663416 10.94003657 12.75299113 12.74867511 8.8203125 13.3125 C6.87741393 13.3125 4.93571912 13.16687234 3 13 C2.67 15.31 2.34 17.62 2 20 C2.66 20 3.32 20 4 20 C4 20.66 4 21.32 4 22 C1.03 22 -1.94 22 -5 22 C-4.505 20.515 -4.505 20.515 -4 19 C-3.34 19 -2.68 19 -2 19 C-1.70996094 17.78763672 -1.70996094 17.78763672 -1.4140625 16.55078125 C-1.15367188 15.48214844 -0.89328125 14.41351563 -0.625 13.3125 C-0.36976562 12.25675781 -0.11453125 11.20101563 0.1484375 10.11328125 C0.91905489 7.29593234 1.85498543 4.68331675 3 2 C2.01 2 1.02 2 0 2 C0 1.34 0 0.68 0 0 Z " fill="#909191" transform="translate(46,11)"/>
<path d="M0 0 C2.2477975 2.05233685 3.0022242 3.00667261 4 6 C6.64 6 9.28 6 12 6 C12.99 4.02 13.98 2.04 15 0 C16.14680101 3.44040303 15.87124738 4.00270384 14.56640625 7.23046875 C14.0878418 8.43413086 14.0878418 8.43413086 13.59960938 9.66210938 C13.25736328 10.49548828 12.91511719 11.32886719 12.5625 12.1875 C12.22412109 13.03248047 11.88574219 13.87746094 11.53710938 14.74804688 C10.69974448 16.83556216 9.85379803 18.91916409 9 21 C8.34 21 7.68 21 7 21 C3.55629555 14.08630327 1.11332019 7.66030756 0 0 Z " fill="#8E8F90" transform="translate(6,12)"/>
<path d="M0 0 C1.51400391 0.01740234 1.51400391 0.01740234 3.05859375 0.03515625 C4.07050781 0.04417969 5.08242187 0.05320312 6.125 0.0625 C7.29869141 0.07990234 7.29869141 0.07990234 8.49609375 0.09765625 C8.82609375 1.74765625 9.15609375 3.39765625 9.49609375 5.09765625 C8.50609375 5.09765625 7.51609375 5.09765625 6.49609375 5.09765625 C6.49609375 4.10765625 6.49609375 3.11765625 6.49609375 2.09765625 C5.83609375 2.09765625 5.17609375 2.09765625 4.49609375 2.09765625 C4.16609375 5.39765625 3.83609375 8.69765625 3.49609375 12.09765625 C4.48609375 12.09765625 5.47609375 12.09765625 6.49609375 12.09765625 C6.82609375 11.10765625 7.15609375 10.11765625 7.49609375 9.09765625 C7.82609375 10.08765625 8.15609375 11.07765625 8.49609375 12.09765625 C6.49609375 14.09765625 6.49609375 14.09765625 3.89453125 14.29296875 C2.89679688 14.26976562 1.8990625 14.2465625 0.87109375 14.22265625 C-0.63324219 14.19558594 -0.63324219 14.19558594 -2.16796875 14.16796875 C-2.93882813 14.14476562 -3.7096875 14.1215625 -4.50390625 14.09765625 C-4.83390625 12.77765625 -5.16390625 11.45765625 -5.50390625 10.09765625 C-4.51390625 10.09765625 -3.52390625 10.09765625 -2.50390625 10.09765625 C-2.50390625 10.75765625 -2.50390625 11.41765625 -2.50390625 12.09765625 C-1.84390625 12.09765625 -1.18390625 12.09765625 -0.50390625 12.09765625 C-0.17390625 8.79765625 0.15609375 5.49765625 0.49609375 2.09765625 C-1.97890625 3.58265625 -1.97890625 3.58265625 -4.50390625 5.09765625 C-3.38261259 0.13192717 -3.38261259 0.13192717 0 0 Z " fill="#B5B6B6" transform="translate(81.50390625,18.90234375)"/>
<path d="M0 0 C1.51400391 0.01740234 1.51400391 0.01740234 3.05859375 0.03515625 C4.07050781 0.04417969 5.08242188 0.05320312 6.125 0.0625 C7.29869141 0.07990234 7.29869141 0.07990234 8.49609375 0.09765625 C8.49609375 1.74765625 8.49609375 3.39765625 8.49609375 5.09765625 C7.50609375 5.09765625 6.51609375 5.09765625 5.49609375 5.09765625 C5.16609375 4.43765625 4.83609375 3.77765625 4.49609375 3.09765625 C3.83609375 6.06765625 3.17609375 9.03765625 2.49609375 12.09765625 C3.48609375 11.76765625 4.47609375 11.43765625 5.49609375 11.09765625 C5.82609375 10.43765625 6.15609375 9.77765625 6.49609375 9.09765625 C7.15609375 9.09765625 7.81609375 9.09765625 8.49609375 9.09765625 C8.12109375 11.03515625 8.12109375 11.03515625 7.49609375 13.09765625 C4.85150996 14.41994814 2.81848074 14.19442819 -0.12890625 14.16015625 C-1.13179687 14.15113281 -2.1346875 14.14210938 -3.16796875 14.1328125 C-3.93882813 14.12121094 -4.7096875 14.10960937 -5.50390625 14.09765625 C-5.50390625 12.44765625 -5.50390625 10.79765625 -5.50390625 9.09765625 C-4.51390625 9.09765625 -3.52390625 9.09765625 -2.50390625 9.09765625 C-2.17390625 9.75765625 -1.84390625 10.41765625 -1.50390625 11.09765625 C-0.84390625 8.12765625 -0.18390625 5.15765625 0.49609375 2.09765625 C-2.62175738 2.74410286 -2.62175738 2.74410286 -3.50390625 5.09765625 C-4.16390625 5.09765625 -4.82390625 5.09765625 -5.50390625 5.09765625 C-3.09571996 0.12073791 -3.09571996 0.12073791 0 0 Z " fill="#C1C2C2" transform="translate(29.50390625,18.90234375)"/>
<path d="M0 0 C2.64 0 5.28 0 8 0 C7.34 0.66 6.68 1.32 6 2 C5.35978753 3.82585961 5.35978753 3.82585961 4.9296875 5.9140625 C4.75566406 6.67460937 4.58164062 7.43515625 4.40234375 8.21875 C4.22832031 9.0128125 4.05429687 9.806875 3.875 10.625 C3.69324219 11.42679688 3.51148438 12.22859375 3.32421875 13.0546875 C2.87629211 15.03499476 2.43729396 17.0173177 2 19 C2.66 19 3.32 19 4 19 C4 19.66 4 20.32 4 21 C1.03 21 -1.94 21 -5 21 C-4.505 19.515 -4.505 19.515 -4 18 C-3.34 18 -2.68 18 -2 18 C-1.70996094 16.78763672 -1.70996094 16.78763672 -1.4140625 15.55078125 C-1.15367188 14.48214844 -0.89328125 13.41351563 -0.625 12.3125 C-0.36976562 11.25675781 -0.11453125 10.20101563 0.1484375 9.11328125 C0.91905489 6.29593234 1.85498543 3.68331675 3 1 C2.01 0.67 1.02 0.34 0 0 Z " fill="#D4D5D5" transform="translate(46,12)"/>
<path d="M0 0 C3.93099448 1.31033149 4.91254858 3.00447593 6.9765625 6.48828125 C9.19826489 11.94077986 9.00197564 17.91624973 7.1953125 23.4765625 C5.49392228 27.10355716 4.40894938 28.72736708 1 31 C1.309375 30.236875 1.61875 29.47375 1.9375 28.6875 C4.54856752 22.08303509 5.28283949 14.64340673 3.36328125 7.6953125 C2.65772803 6.09146956 1.83668694 4.53950397 1 3 C0.67 2.01 0.34 1.02 0 0 Z " fill="#BCBDBD" transform="translate(94,9)"/>
<path d="M0 0 C0.66 0.33 1.32 0.66 2 1 C1.2884375 2.0828125 1.2884375 2.0828125 0.5625 3.1875 C-2.33253527 8.39856349 -2.70816142 14.1323768 -2 20 C-0.89981303 23.44949453 0.46706611 26.72198512 2 30 C-1.09433877 28.657415 -1.91685615 28.13659347 -3.75 25.125 C-6.13668625 18.85667018 -6.17317305 11.08942203 -3.625 4.875 C-2 2 -2 2 0 0 Z " fill="#C7C8C8" transform="translate(71,10)"/>
<path d="M0 0 C3 0.125 3 0.125 4 1.125 C4.125 4.125 4.125 4.125 4 7.125 C3 8.125 3 8.125 -0.5625 8.1875 C-1.696875 8.166875 -2.83125 8.14625 -4 8.125 C-4.04241723 5.79205225 -4.04092937 3.45797433 -4 1.125 C-3 0.125 -3 0.125 0 0 Z " fill="#2B2E2E" transform="translate(55,12.875)"/>
<path d="M0 0 C1.51400391 0.01740234 1.51400391 0.01740234 3.05859375 0.03515625 C4.07050781 0.04417969 5.08242188 0.05320312 6.125 0.0625 C7.29869141 0.07990234 7.29869141 0.07990234 8.49609375 0.09765625 C8.49609375 1.74765625 8.49609375 3.39765625 8.49609375 5.09765625 C7.50609375 5.09765625 6.51609375 5.09765625 5.49609375 5.09765625 C4.83609375 4.43765625 4.17609375 3.77765625 3.49609375 3.09765625 C2.83609375 2.76765625 2.17609375 2.43765625 1.49609375 2.09765625 C1.16609375 3.08765625 0.83609375 4.07765625 0.49609375 5.09765625 C0.49609375 4.10765625 0.49609375 3.11765625 0.49609375 2.09765625 C-2.62175738 2.74410286 -2.62175738 2.74410286 -3.50390625 5.09765625 C-4.16390625 5.09765625 -4.82390625 5.09765625 -5.50390625 5.09765625 C-3.09571996 0.12073791 -3.09571996 0.12073791 0 0 Z " fill="#939495" transform="translate(29.50390625,18.90234375)"/>
<path d="M0 0 C2.2477975 2.05233685 3.0022242 3.00667261 4 6 C6.64 6 9.28 6 12 6 C12.99 4.02 13.98 2.04 15 0 C16 3 16 3 14.5625 6.1875 C13.7890625 7.5796875 13.7890625 7.5796875 13 9 C9.7 9 6.4 9 3 9 C0 3.375 0 3.375 0 0 Z " fill="#A9AAAA" transform="translate(6,12)"/>
<path d="M0 0 C3.92513321 1.30837774 4.89301624 3.00659706 6.9921875 6.45703125 C8.85623702 11.16050505 8.37266007 16.03119903 8 21 C7.67 21 7.34 21 7 21 C6.95101562 20.28972656 6.90203125 19.57945313 6.8515625 18.84765625 C6.77679688 17.92855469 6.70203125 17.00945313 6.625 16.0625 C6.52058594 14.68771484 6.52058594 14.68771484 6.4140625 13.28515625 C6.20910156 12.15400391 6.20910156 12.15400391 6 11 C5.34 10.67 4.68 10.34 4 10 C2.47615729 6.70849974 1.14689643 3.44068928 0 0 Z " fill="#888A8A" transform="translate(94,9)"/>
<path d="M0 0 C1.98 0 3.96 0 6 0 C5.34 2.64 4.68 5.28 4 8 C3.34 8 2.68 8 2 8 C0.74335022 5.09399739 0 3.20395416 0 0 Z " fill="#242728" transform="translate(11,21)"/>
<path d="M0 0 C2.64 0 5.28 0 8 0 C7.34 0.66 6.68 1.32 6 2 C5.40165446 3.52056618 4.86493344 5.06612088 4.375 6.625 C4.11460938 7.44226563 3.85421875 8.25953125 3.5859375 9.1015625 C3.39257812 9.72804688 3.19921875 10.35453125 3 11 C2.67 11 2.34 11 2 11 C1.875 3.25 1.875 3.25 3 1 C2.01 0.67 1.02 0.34 0 0 Z " fill="#DADBDB" transform="translate(46,12)"/>
<path d="M0 0 C1.07349791 4.29399165 0.79682816 5.19495213 -1 9 C0.65 9 2.3 9 4 9 C4 9.66 4 10.32 4 11 C1.03 11 -1.94 11 -5 11 C-4.67 10.01 -4.34 9.02 -4 8 C-3.34 8 -2.68 8 -2 8 C-1.34 5.36 -0.68 2.72 0 0 Z " fill="#8D8F8F" transform="translate(46,22)"/>
<path d="M0 0 C0.33 0.99 0.66 1.98 1 3 C1.94875 2.95875 2.8975 2.9175 3.875 2.875 C7 3 7 3 9 5 C6.04335481 6.4783226 3.25770263 6.06032783 0 6 C0 4.02 0 2.04 0 0 Z " fill="#7E7F80" transform="translate(50,18)"/>
<path d="M0 0 C0.99 0 1.98 0 3 0 C3.36923077 4.55384615 3.36923077 4.55384615 1.5 6.8125 C1.005 7.204375 0.51 7.59625 0 8 C-0.99 7.67 -1.98 7.34 -3 7 C-2.01 4.69 -1.02 2.38 0 0 Z " fill="#CECFCF" transform="translate(60,14)"/>
<path d="M0 0 C2.97 0 5.94 0 9 0 C9 0.33 9 0.66 9 1 C7.02 1 5.04 1 3 1 C3.66 3.31 4.32 5.62 5 8 C4.01 8.495 4.01 8.495 3 9 C2.01 6.03 1.02 3.06 0 0 Z " fill="#777979" transform="translate(8,20)"/>
<path d="M0 0 C0 1.32 0 2.64 0 4 C-0.99 4 -1.98 4 -3 4 C-3 3.01 -3 2.02 -3 1 C-3.66 1 -4.32 1 -5 1 C-5.33 2.32 -5.66 3.64 -6 5 C-6.33 3.35 -6.66 1.7 -7 0 C-4.3333581 -1.33332095 -2.83319697 -0.67102033 0 0 Z " fill="#A1A2A2" transform="translate(91,20)"/>
<path d="M0 0 C1.2065625 0.0309375 1.2065625 0.0309375 2.4375 0.0625 C2.1075 2.3725 1.7775 4.6825 1.4375 7.0625 C1.1075 7.0625 0.7775 7.0625 0.4375 7.0625 C0.4375 5.4125 0.4375 3.7625 0.4375 2.0625 C-2.0375 3.5475 -2.0375 3.5475 -4.5625 5.0625 C-3.43829114 0.08386076 -3.43829114 0.08386076 0 0 Z " fill="#828484" transform="translate(81.5625,18.9375)"/>
<path d="M0 0 C0.66 0.33 1.32 0.66 2 1 C1.2884375 2.0828125 1.2884375 2.0828125 0.5625 3.1875 C-0.94152903 5.89475226 -1.56599182 7.96194275 -2 11 C-4 8 -4 8 -3.8125 6.0625 C-2.87858188 3.69178476 -1.61172061 1.96209466 0 0 Z " fill="#A5A6A6" transform="translate(71,10)"/>
<path d="M0 0 C2.17854707 3.2678206 3.49760034 6.38058265 5 10 C3.125 9.375 3.125 9.375 1 8 C-0.3125 5 -0.3125 5 -1 2 C-0.67 1.34 -0.34 0.68 0 0 Z " fill="#A4A5A6" transform="translate(68,30)"/>
<path d="M0 0 C0.66 1.32 1.32 2.64 2 4 C0.02 4.33 -1.96 4.66 -4 5 C-4.33 3.68 -4.66 2.36 -5 1 C-4.01 1 -3.02 1 -2 1 C-2 1.66 -2 2.32 -2 3 C-1.34 3 -0.68 3 0 3 C0 2.01 0 1.02 0 0 Z " fill="#AFB0B0" transform="translate(81,28)"/>
<path d="M0 0 C0.66 0 1.32 0 2 0 C1.625 1.9375 1.625 1.9375 1 4 C-1.95664519 5.4783226 -4.74229737 5.06032783 -8 5 C-5.66785852 3.79371992 -3.50357861 2.8345262 -1 2 C-0.67 1.34 -0.34 0.68 0 0 Z " fill="#838585" transform="translate(36,28)"/>
<path d="M0 0 C0.99 0 1.98 0 3 0 C3.33 1.65 3.66 3.3 4 5 C2.68 5 1.36 5 0 5 C0 3.35 0 1.7 0 0 Z " fill="#A5A6A6" transform="translate(24,28)"/>
<path d="M0 0 C1.32 0 2.64 0 4 0 C4 1.65 4 3.3 4 5 C3.01 5 2.02 5 1 5 C0.67 3.35 0.34 1.7 0 0 Z " fill="#A3A4A4" transform="translate(34,19)"/>
</svg>
