<?xml version="1.0" encoding="UTF-8"?>
<svg version="1.1" xmlns="http://www.w3.org/2000/svg" width="114" height="112">
<path d="M0 0 C37.62 0 75.24 0 114 0 C114 36.96 114 73.92 114 112 C76.38 112 38.76 112 0 112 C0 75.04 0 38.08 0 0 Z " fill="#FEFEFE" transform="translate(0,0)"/>
<path d="M0 0 C1.0219043 -0.01160156 1.0219043 -0.01160156 2.06445312 -0.0234375 C6.3938543 -0.00680195 9.91468736 0.66848864 13.9375 2.25 C13.9375 2.58 13.9375 2.91 13.9375 3.25 C12.62394531 3.23839844 11.31039062 3.22679687 9.95703125 3.21484375 C8.22135559 3.20546172 6.48567839 3.19636196 4.75 3.1875 C3.88568359 3.17912109 3.02136719 3.17074219 2.13085938 3.16210938 C-2.06536769 3.14603188 -5.97186886 3.17440962 -10.0625 4.25 C-7.71311112 5.42469444 -6.11176795 5.45034889 -3.4921875 5.56640625 C-2.14833984 5.62924805 -2.14833984 5.62924805 -0.77734375 5.69335938 C0.15980469 5.73267578 1.09695312 5.77199219 2.0625 5.8125 C3.00738281 5.85568359 3.95226562 5.89886719 4.92578125 5.94335938 C7.26287092 6.04959072 9.6000683 6.15163176 11.9375 6.25 C10.7710158 10.05470079 9.49373932 13.29573999 7.3125 16.625 C6.86648437 17.31335938 6.42046875 18.00171875 5.9609375 18.7109375 C5.62320313 19.21882813 5.28546875 19.72671875 4.9375 20.25 C4.6075 18.93 4.2775 17.61 3.9375 16.25 C5.5875 13.61 7.2375 10.97 8.9375 8.25 C2.3375 8.25 -4.2625 8.25 -11.0625 8.25 C-8.14889866 13.05337979 -8.14889866 13.05337979 -5.22875977 17.8527832 C-4.86580811 18.45437256 -4.50285645 19.05596191 -4.12890625 19.67578125 C-3.75709229 20.28848877 -3.38527832 20.90119629 -3.00219727 21.5324707 C-2.0625 23.25 -2.0625 23.25 -1.0625 26.25 C-0.7325 24.93 -0.4025 23.61 -0.0625 22.25 C0.5975 22.25 1.2575 22.25 1.9375 22.25 C2.2675 23.57 2.5975 24.89 2.9375 26.25 C4.35511307 23.89639882 5.7716104 21.54213772 7.1875 19.1875 C7.58324219 18.53072266 7.97898437 17.87394531 8.38671875 17.19726562 C10.96152795 12.91295196 13.47216402 8.5982646 15.9375 4.25 C16.5975 4.58 17.2575 4.91 17.9375 5.25 C16.00089673 8.64634547 14.06305893 12.04198499 12.125 15.4375 C11.57779297 16.39720703 11.03058594 17.35691406 10.46679688 18.34570312 C9.93505859 19.27705078 9.40332031 20.20839844 8.85546875 21.16796875 C8.36844482 22.02156982 7.8814209 22.8751709 7.37963867 23.75463867 C5.92596016 26.26996761 4.43904666 28.76300249 2.9375 31.25 C4.5875 31.91 6.2375 32.57 7.9375 33.25 C6.4525 33.745 6.4525 33.745 4.9375 34.25 C5.5975 35.57 6.2575 36.89 6.9375 38.25 C5.9475 38.745 5.9475 38.745 4.9375 39.25 C5.30101563 39.89549805 5.66453125 40.54099609 6.0390625 41.20605469 C7.68067031 44.13253631 9.30918667 47.06610211 10.9375 50 C11.79601562 51.52367188 11.79601562 51.52367188 12.671875 53.078125 C13.21328125 54.0578125 13.7546875 55.0375 14.3125 56.046875 C14.81523438 56.94760742 15.31796875 57.84833984 15.8359375 58.77636719 C16.9375 61.25 16.9375 61.25 16.9375 65.25 C15.6175 65.25 14.2975 65.25 12.9375 65.25 C12.9375 64.26 12.9375 63.27 12.9375 62.25 C5.3475 62.25 -2.2425 62.25 -10.0625 62.25 C-8.67104034 58.07562101 -7.55803763 55.05803904 -5.4375 51.375 C-4.99148437 50.59382813 -4.54546875 49.81265625 -4.0859375 49.0078125 C-3.74820313 48.42773438 -3.41046875 47.84765625 -3.0625 47.25 C-2.4025 47.25 -1.7425 47.25 -1.0625 47.25 C-1.72034963 50.54680965 -2.95670573 53.09117922 -4.625 56 C-5.08003906 56.79921875 -5.53507812 57.5984375 -6.00390625 58.421875 C-6.35324219 59.02515625 -6.70257813 59.6284375 -7.0625 60.25 C-6.49740723 60.24476318 -5.93231445 60.23952637 -5.35009766 60.23413086 C-2.7959097 60.21337578 -0.24173947 60.2003446 2.3125 60.1875 C3.64667969 60.17493164 3.64667969 60.17493164 5.0078125 60.16210938 C6.28398438 60.15727539 6.28398438 60.15727539 7.5859375 60.15234375 C8.37145996 60.14710693 9.15698242 60.14187012 9.96630859 60.13647461 C11.9375 60.25 11.9375 60.25 13.9375 61.25 C8.4925 51.35 8.4925 51.35 2.9375 41.25 C2.6075 42.24 2.2775 43.23 1.9375 44.25 C1.2775 44.25 0.6175 44.25 -0.0625 44.25 C-0.0625 43.59 -0.0625 42.93 -0.0625 42.25 C-0.7225 42.25 -1.3825 42.25 -2.0625 42.25 C-2.289375 42.89324219 -2.51625 43.53648438 -2.75 44.19921875 C-4.53561092 48.34970127 -6.77821649 52.16942825 -9.0625 56.0625 C-9.51367188 56.85076172 -9.96484375 57.63902344 -10.4296875 58.45117188 C-10.86539063 59.19560547 -11.30109375 59.94003906 -11.75 60.70703125 C-12.14574219 61.38741455 -12.54148438 62.06779785 -12.94921875 62.76879883 C-13.31660156 63.25759521 -13.68398438 63.7463916 -14.0625 64.25 C-14.7225 64.25 -15.3825 64.25 -16.0625 64.25 C-14.70207362 60.66517978 -13.10771596 57.35271165 -11.25 54 C-10.72535156 53.04996094 -10.20070313 52.09992188 -9.66015625 51.12109375 C-9.13292969 50.17363281 -8.60570312 49.22617188 -8.0625 48.25 C-7.31806641 46.90615234 -7.31806641 46.90615234 -6.55859375 45.53515625 C-5.39601297 43.43853621 -4.23071572 41.34348392 -3.0625 39.25 C-3.7225 38.59 -4.3825 37.93 -5.0625 37.25 C-4.5675 36.755 -4.5675 36.755 -4.0625 36.25 C-6.0425 35.59 -8.0225 34.93 -10.0625 34.25 C-10.0625 33.92 -10.0625 33.59 -10.0625 33.25 C-6.5975 32.755 -6.5975 32.755 -3.0625 32.25 C-3.3925 31.59 -3.7225 30.93 -4.0625 30.25 C-3.4025 30.25 -2.7425 30.25 -2.0625 30.25 C-2.5575 29.30125 -3.0525 28.3525 -3.5625 27.375 C-5.0625 24.25 -5.0625 24.25 -5.0625 22.25 C-5.7225 22.25 -6.3825 22.25 -7.0625 22.25 C-8.40576531 19.67141033 -9.73724665 17.08782579 -11.0625 14.5 C-11.63484375 13.40558594 -11.63484375 13.40558594 -12.21875 12.2890625 C-12.5796875 11.58007812 -12.940625 10.87109375 -13.3125 10.140625 C-13.64765625 9.49125977 -13.9828125 8.84189453 -14.328125 8.17285156 C-15.0625 6.25 -15.0625 6.25 -15.0625 2.25 C-9.96159098 0.57408204 -5.38611012 -0.06149698 0 0 Z " fill="#5A5A5A" transform="translate(56.0625,30.75)"/>
<path d="M0 0 C2.2212569 2.07197566 3.77354751 4.07911996 5.26171875 6.72265625 C5.65810547 7.42583984 6.05449219 8.12902344 6.46289062 8.85351562 C6.86701172 9.58248047 7.27113281 10.31144531 7.6875 11.0625 C8.10322266 11.79533203 8.51894531 12.52816406 8.94726562 13.28320312 C12 18.74203356 12 18.74203356 12 21 C5.07 20.67 -1.86 20.34 -9 20 C-7.30119563 14.90358688 -5.69062201 11.48437002 -3 7 C-3.66 7 -4.32 7 -5 7 C-5.66 8.65 -6.32 10.3 -7 12 C-8.65 15.3 -10.3 18.6 -12 22 C-4.41 22 3.18 22 11 22 C11 22.99 11 23.98 11 25 C12.32 25 13.64 25 15 25 C15.33 24.01 15.66 23.02 16 22 C16 23.32 16 24.64 16 26 C5.78200789 27.34637072 -4.84054395 27.96333046 -15 26 C-16 23 -16 23 -15.01196289 20.73168945 C-14.5039917 19.86761475 -13.99602051 19.00354004 -13.47265625 18.11328125 C-12.92802734 17.17548828 -12.38339844 16.23769531 -11.82226562 15.27148438 C-11.24154297 14.29501953 -10.66082031 13.31855469 -10.0625 12.3125 C-9.48564453 11.32443359 -8.90878906 10.33636719 -8.31445312 9.31835938 C-6.88529486 6.87343573 -5.44689143 4.43445726 -4 2 C-3.34 2 -2.68 2 -2 2 C-2 2.66 -2 3.32 -2 4 C-1.34 4 -0.68 4 0 4 C0 2.68 0 1.36 0 0 Z " fill="#EEEEEE" transform="translate(58,71)"/>
<path d="M0 0 C0.92232422 0.00902344 1.84464844 0.01804688 2.79492188 0.02734375 C5.05105809 0.0507234 7.30663684 0.08349084 9.5625 0.125 C10.5625 3.125 10.5625 3.125 9.60620117 5.37744141 C9.11095947 6.23515137 8.61571777 7.09286133 8.10546875 7.9765625 C7.56986328 8.90984375 7.03425781 9.843125 6.48242188 10.8046875 C5.91072266 11.77664062 5.33902344 12.74859375 4.75 13.75 C3.90985352 15.21953125 3.90985352 15.21953125 3.05273438 16.71875 C-1.1597163 23.98610815 -1.1597163 23.98610815 -3.4375 25.125 C-3.4375 23.475 -3.4375 21.825 -3.4375 20.125 C-4.0975 20.125 -4.7575 20.125 -5.4375 20.125 C-5.4375 21.775 -5.4375 23.425 -5.4375 25.125 C-8.25771873 23.71489063 -8.84220083 21.83169041 -10.3125 19.0625 C-11.05113281 17.68384766 -11.05113281 17.68384766 -11.8046875 16.27734375 C-13.72017009 12.57927089 -15.57498469 8.85003062 -17.4375 5.125 C-10.5075 5.455 -3.5775 5.785 3.5625 6.125 C1.5625 11.125 1.5625 11.125 -0.4375 14.125 C-0.4375 15.115 -0.4375 16.105 -0.4375 17.125 C1.8725 12.835 4.1825 8.545 6.5625 4.125 C4.46648437 4.15980469 4.46648437 4.15980469 2.328125 4.1953125 C0.48958868 4.21407307 -1.34895342 4.23227297 -3.1875 4.25 C-4.10789062 4.26675781 -5.02828125 4.28351562 -5.9765625 4.30078125 C-6.86601563 4.30722656 -7.75546875 4.31367187 -8.671875 4.3203125 C-9.89729004 4.33602295 -9.89729004 4.33602295 -11.14746094 4.35205078 C-13.65637518 4.10329916 -15.27145625 3.38200129 -17.4375 2.125 C-11.51968663 0.06310069 -6.23331786 -0.11667838 0 0 Z " fill="#F1F1F1" transform="translate(61.4375,32.875)"/>
<path d="M0 0 C1.0219043 -0.01160156 1.0219043 -0.01160156 2.06445312 -0.0234375 C6.3938543 -0.00680195 9.91468736 0.66848864 13.9375 2.25 C13.9375 2.58 13.9375 2.91 13.9375 3.25 C12.62394531 3.23839844 11.31039062 3.22679687 9.95703125 3.21484375 C8.22135559 3.20546172 6.48567839 3.19636196 4.75 3.1875 C3.88568359 3.17912109 3.02136719 3.17074219 2.13085938 3.16210938 C-2.06536769 3.14603188 -5.97186886 3.17440962 -10.0625 4.25 C-7.71311112 5.42469444 -6.11176795 5.45034889 -3.4921875 5.56640625 C-2.14833984 5.62924805 -2.14833984 5.62924805 -0.77734375 5.69335938 C0.15980469 5.73267578 1.09695312 5.77199219 2.0625 5.8125 C3.00738281 5.85568359 3.95226562 5.89886719 4.92578125 5.94335938 C7.26287092 6.04959072 9.6000683 6.15163176 11.9375 6.25 C10.7710158 10.05470079 9.49373932 13.29573999 7.3125 16.625 C6.86648437 17.31335938 6.42046875 18.00171875 5.9609375 18.7109375 C5.62320313 19.21882813 5.28546875 19.72671875 4.9375 20.25 C4.6075 18.93 4.2775 17.61 3.9375 16.25 C5.5875 13.61 7.2375 10.97 8.9375 8.25 C2.3375 8.25 -4.2625 8.25 -11.0625 8.25 C-8.14889866 13.05337979 -8.14889866 13.05337979 -5.22875977 17.8527832 C-4.86580811 18.45437256 -4.50285645 19.05596191 -4.12890625 19.67578125 C-3.75709229 20.28848877 -3.38527832 20.90119629 -3.00219727 21.5324707 C-2.0625 23.25 -2.0625 23.25 -1.0625 26.25 C-0.7325 24.93 -0.4025 23.61 -0.0625 22.25 C0.5975 22.25 1.2575 22.25 1.9375 22.25 C2.2675 23.57 2.5975 24.89 2.9375 26.25 C4.35511307 23.89639882 5.7716104 21.54213772 7.1875 19.1875 C7.58324219 18.53072266 7.97898437 17.87394531 8.38671875 17.19726562 C10.96152795 12.91295196 13.47216402 8.5982646 15.9375 4.25 C16.5975 4.58 17.2575 4.91 17.9375 5.25 C16.00797571 8.69203533 14.06752745 12.12778883 12.125 15.5625 C11.57779297 16.53896484 11.03058594 17.51542969 10.46679688 18.52148438 C9.66918945 19.92817383 9.66918945 19.92817383 8.85546875 21.36328125 C8.36844482 22.22735596 7.8814209 23.09143066 7.37963867 23.98168945 C6.04682832 26.07803971 4.86743878 27.6906924 2.9375 29.25 C0.75 28.9375 0.75 28.9375 -1.0625 28.25 C-1.3925 29.57 -1.7225 30.89 -2.0625 32.25 C-2.7225 31.59 -3.3825 30.93 -4.0625 30.25 C-3.4025 30.25 -2.7425 30.25 -2.0625 30.25 C-2.5575 29.30125 -3.0525 28.3525 -3.5625 27.375 C-5.0625 24.25 -5.0625 24.25 -5.0625 22.25 C-5.7225 22.25 -6.3825 22.25 -7.0625 22.25 C-8.40576531 19.67141033 -9.73724665 17.08782579 -11.0625 14.5 C-11.63484375 13.40558594 -11.63484375 13.40558594 -12.21875 12.2890625 C-12.5796875 11.58007812 -12.940625 10.87109375 -13.3125 10.140625 C-13.64765625 9.49125977 -13.9828125 8.84189453 -14.328125 8.17285156 C-15.0625 6.25 -15.0625 6.25 -15.0625 2.25 C-9.96159098 0.57408204 -5.38611012 -0.06149698 0 0 Z " fill="#565656" transform="translate(56.0625,30.75)"/>
<path d="M0 0 C0.66 0 1.32 0 2 0 C2 0.66 2 1.32 2 2 C2.66 2 3.32 2 4 2 C4 3.32 4 4.64 4 6 C3.34 6 2.68 6 2 6 C2 5.01 2 4.02 2 3 C1.67 3.66 1.34 4.32 1 5 C0.34 5 -0.32 5 -1 5 C-1.66 6.65 -2.32 8.3 -3 10 C-4.65 13.3 -6.3 16.6 -8 20 C-0.41 20 7.18 20 15 20 C15 20.99 15 21.98 15 23 C16.32 23 17.64 23 19 23 C19.33 22.01 19.66 21.02 20 20 C20 21.32 20 22.64 20 24 C9.78200789 25.34637072 -0.84054395 25.96333046 -11 24 C-12 21 -12 21 -11.01196289 18.73168945 C-10.5039917 17.86761475 -9.99602051 17.00354004 -9.47265625 16.11328125 C-8.92802734 15.17548828 -8.38339844 14.23769531 -7.82226562 13.27148438 C-7.24154297 12.29501953 -6.66082031 11.31855469 -6.0625 10.3125 C-5.48564453 9.32443359 -4.90878906 8.33636719 -4.31445312 7.31835938 C-2.88529486 4.87343573 -1.44689143 2.43445726 0 0 Z " fill="#ABABAB" transform="translate(54,73)"/>
<path d="M0 0 C0.92232422 0.00902344 1.84464844 0.01804688 2.79492188 0.02734375 C5.05105809 0.0507234 7.30663684 0.08349084 9.5625 0.125 C10.5625 3.125 10.5625 3.125 9.75805664 5.11791992 C9.33387451 5.85631104 8.90969238 6.59470215 8.47265625 7.35546875 C8.01826172 8.15791016 7.56386719 8.96035156 7.09570312 9.78710938 C6.36770508 11.03717773 6.36770508 11.03717773 5.625 12.3125 C4.90280273 13.5799707 4.90280273 13.5799707 4.16601562 14.87304688 C2.9737945 16.96238489 1.77240182 19.04586675 0.5625 21.125 C0.2325 20.465 -0.0975 19.805 -0.4375 19.125 C-1.0975 19.125 -1.7575 19.125 -2.4375 19.125 C-2.1075 18.135 -1.7775 17.145 -1.4375 16.125 C-1.1075 16.455 -0.7775 16.785 -0.4375 17.125 C1.8725 12.835 4.1825 8.545 6.5625 4.125 C4.46648437 4.15980469 4.46648437 4.15980469 2.328125 4.1953125 C0.48958868 4.21407307 -1.34895342 4.23227297 -3.1875 4.25 C-4.10789062 4.26675781 -5.02828125 4.28351562 -5.9765625 4.30078125 C-6.86601563 4.30722656 -7.75546875 4.31367187 -8.671875 4.3203125 C-9.89729004 4.33602295 -9.89729004 4.33602295 -11.14746094 4.35205078 C-13.65637518 4.10329916 -15.27145625 3.38200129 -17.4375 2.125 C-11.51968663 0.06310069 -6.23331786 -0.11667838 0 0 Z " fill="#DEDEDE" transform="translate(61.4375,32.875)"/>
<path d="M0 0 C2.64 0 5.28 0 8 0 C8.28875 0.969375 8.5775 1.93875 8.875 2.9375 C9.64214682 6.10664203 9.64214682 6.10664203 12 7 C12 8.32 12 9.64 12 11 C11.34 11 10.68 11 10 11 C10 10.34 10 9.68 10 9 C9.34 9 8.68 9 8 9 C7.773125 9.64324219 7.54625 10.28648438 7.3125 10.94921875 C5.52688908 15.09970127 3.28428351 18.91942825 1 22.8125 C0.54882812 23.60076172 0.09765625 24.38902344 -0.3671875 25.20117188 C-0.80289063 25.94560547 -1.23859375 26.69003906 -1.6875 27.45703125 C-2.08324219 28.13741455 -2.47898438 28.81779785 -2.88671875 29.51879883 C-3.25410156 30.00759521 -3.62148438 30.4963916 -4 31 C-4.66 31 -5.32 31 -6 31 C-4.63957362 27.41517978 -3.04521596 24.10271165 -1.1875 20.75 C-0.66285156 19.79996094 -0.13820313 18.84992188 0.40234375 17.87109375 C0.92957031 16.92363281 1.45679688 15.97617188 2 15 C2.49628906 14.10410156 2.99257813 13.20820312 3.50390625 12.28515625 C4.66648703 10.18853621 5.83178428 8.09348392 7 6 C6.34 5.34 5.68 4.68 5 4 C5.33 3.67 5.66 3.34 6 3 C4.02 2.34 2.04 1.68 0 1 C0 0.67 0 0.34 0 0 Z " fill="#525252" transform="translate(46,64)"/>
<path d="M0 0 C0.9583374 0.04713135 1.9166748 0.0942627 2.90405273 0.14282227 C3.93852539 0.19116211 4.97299805 0.23950195 6.03881836 0.28930664 C7.12743164 0.34538086 8.21604492 0.40145508 9.33764648 0.45922852 C10.43012695 0.51143555 11.52260742 0.56364258 12.64819336 0.61743164 C15.35743724 0.74756999 18.06635442 0.88254906 20.77514648 1.02172852 C19.60866229 4.8264293 18.3313858 8.06746851 16.15014648 11.39672852 C15.70413086 12.08508789 15.25811523 12.77344727 14.79858398 13.48266602 C14.46084961 13.99055664 14.12311523 14.49844727 13.77514648 15.02172852 C13.12280273 13.28735352 13.12280273 13.28735352 12.77514648 11.02172852 C13.77124023 8.88110352 13.77124023 8.88110352 15.21264648 6.77172852 C15.68573242 6.06532227 16.15881836 5.35891602 16.64624023 4.63110352 C17.0187793 4.10000977 17.39131836 3.56891602 17.77514648 3.02172852 C15.87829102 3.0565332 15.87829102 3.0565332 13.94311523 3.09204102 C12.28296488 3.11079978 10.62280815 3.12899986 8.96264648 3.14672852 C8.12926758 3.16348633 7.29588867 3.18024414 6.43725586 3.19750977 C5.63481445 3.20395508 4.83237305 3.21040039 4.00561523 3.21704102 C2.89802856 3.23275146 2.89802856 3.23275146 1.76806641 3.2487793 C-0.22485352 3.02172852 -0.22485352 3.02172852 -3.22485352 1.02172852 C-2.22485352 0.02172852 -2.22485352 0.02172852 0 0 Z " fill="#6A6A6A" transform="translate(47.224853515625,35.978271484375)"/>
<path d="M0 0 C0.66 0.33 1.32 0.66 2 1 C0.07047571 4.44203533 -1.86997255 7.87778883 -3.8125 11.3125 C-4.63331055 12.77719727 -4.63331055 12.77719727 -5.47070312 14.27148438 C-6.26831055 15.67817383 -6.26831055 15.67817383 -7.08203125 17.11328125 C-7.56905518 17.97735596 -8.0560791 18.84143066 -8.55786133 19.73168945 C-9.89067168 21.82803971 -11.07006122 23.4406924 -13 25 C-15.1875 24.6875 -15.1875 24.6875 -17 24 C-17.33 25.32 -17.66 26.64 -18 28 C-18.66 27.34 -19.32 26.68 -20 26 C-19.34 26 -18.68 26 -18 26 C-18.66 24.35 -19.32 22.7 -20 21 C-19.34 20.34 -18.68 19.68 -18 19 C-17.67 19.99 -17.34 20.98 -17 22 C-16.67 20.68 -16.34 19.36 -16 18 C-15.34 18 -14.68 18 -14 18 C-13.67 19.32 -13.34 20.64 -13 22 C-11.58238693 19.64639882 -10.1658896 17.29213772 -8.75 14.9375 C-8.35425781 14.28072266 -7.95851563 13.62394531 -7.55078125 12.94726562 C-4.97597205 8.66295196 -2.46533598 4.3482646 0 0 Z " fill="#505050" transform="translate(72,35)"/>
<path d="M0 0 C0.99 0.33 1.98 0.66 3 1 C3 1.66 3 2.32 3 3 C4.68029297 3.09087891 4.68029297 3.09087891 6.39453125 3.18359375 C7.86719984 3.26801424 9.33985544 3.35266149 10.8125 3.4375 C11.91948242 3.49647461 11.91948242 3.49647461 13.04882812 3.55664062 C16.23071342 3.74381035 18.96162378 3.98720793 22 5 C22 5.66 22 6.32 22 7 C15.07 7 8.14 7 1 7 C0.34 5.02 -0.32 3.04 -1 1 C-0.67 0.67 -0.34 0.34 0 0 Z " fill="#B9B9B9" transform="translate(60,59)"/>
<path d="M0 0 C0.66 0.99 1.32 1.98 2 3 C-1.3 8.94 -4.6 14.88 -8 21 C-8.33 20.34 -8.66 19.68 -9 19 C-9.66 19 -10.32 19 -11 19 C-10.505 17.515 -10.505 17.515 -10 16 C-9.67 16.33 -9.34 16.66 -9 17 C-5.535 10.565 -5.535 10.565 -2 4 C-4.31 4 -6.62 4 -9 4 C-7.02579865 1.47740939 -6.03254358 1.0070192 -2.8125 0.3125 C-1.4203125 0.1578125 -1.4203125 0.1578125 0 0 Z " fill="#C8C8C8" transform="translate(70,33)"/>
<path d="M0 0 C1.32 0 2.64 0 4 0 C4 0.99 4 1.98 4 3 C6.475 3.99 6.475 3.99 9 5 C8.38125 5.4125 7.7625 5.825 7.125 6.25 C4.93231719 8.05573879 4.07211583 9.4090534 3 12 C2.01 11.67 1.02 11.34 0 11 C-1.125 3.375 -1.125 3.375 0 0 Z " fill="#1F1F1F" transform="translate(55,59)"/>
<path d="M0 0 C1.65 0 3.3 0 5 0 C5.020625 0.9075 5.04125 1.815 5.0625 2.75 C5.73313849 7.944787 8.82633954 12.00623628 11.6015625 16.328125 C12.06304687 17.20984375 12.52453125 18.0915625 13 19 C12.67 19.99 12.34 20.98 12 22 C11.67 21.01 11.34 20.02 11 19 C10.34 19 9.68 19 9 19 C7.68504458 16.39704724 6.37295014 13.79271967 5.0625 11.1875 C4.68931641 10.44951172 4.31613281 9.71152344 3.93164062 8.95117188 C3.57392578 8.23896484 3.21621094 7.52675781 2.84765625 6.79296875 C2.51773682 6.1383667 2.18781738 5.48376465 1.84790039 4.80932617 C1 3 1 3 0 0 Z " fill="#545454" transform="translate(40,34)"/>
<path d="M0 0 C0.66 0 1.32 0 2 0 C1.02566703 4.88286407 -1.54121406 8.71288606 -4 13 C1.28 13 6.56 13 12 13 C12 13.33 12 13.66 12 14 C2.595 14.495 2.595 14.495 -7 15 C-5.60854034 10.82562101 -4.49553763 7.80803904 -2.375 4.125 C-1.92898437 3.34382813 -1.48296875 2.56265625 -1.0234375 1.7578125 C-0.68570313 1.17773438 -0.34796875 0.59765625 0 0 Z " fill="#4C4C4C" transform="translate(53,78)"/>
<path d="M0 0 C0.66 0.66 1.32 1.32 2 2 C0.35 2.33 -1.3 2.66 -3 3 C-3 3.33 -3 3.66 -3 4 C-7.95 4 -12.9 4 -18 4 C-17.67 3.01 -17.34 2.02 -17 1 C-14.20880221 0.77885585 -11.4178788 0.57256699 -8.625 0.375 C-7.43390625 0.27832031 -7.43390625 0.27832031 -6.21875 0.1796875 C-4.14971776 0.03941413 -2.07374464 0.01241763 0 0 Z " fill="#C6C6C6" transform="translate(52,62)"/>
<path d="M0 0 C0.66 0.66 1.32 1.32 2 2 C0.55041382 4.5054576 -0.90898798 7.00418199 -2.375 9.5 C-2.7875 10.21542969 -3.2 10.93085937 -3.625 11.66796875 C-4.69451438 13.47924311 -5.8419038 15.24404186 -7 17 C-7.66 17 -8.32 17 -9 17 C-7.57997238 13.24069983 -5.87350167 9.77000304 -3.9375 6.25 C-3.14666016 4.80367188 -3.14666016 4.80367188 -2.33984375 3.328125 C-1 1 -1 1 0 0 Z " fill="#6B6B6B" transform="translate(49,78)"/>
<path d="M0 0 C0.99 0 1.98 0 3 0 C1.53967505 5.31027254 -0.98320986 9.46330032 -4 14 C-4.6171875 12.1875 -4.6171875 12.1875 -5 10 C-3.7260411 7.96166576 -2.38938077 5.96147874 -1 4 C-0.23060319 1.77397385 -0.23060319 1.77397385 0 0 Z " fill="#454545" transform="translate(65,37)"/>
<path d="M0 0 C0.66 0 1.32 0 2 0 C2.33 1.98 2.66 3.96 3 6 C1.68 6 0.36 6 -1 6 C-1.33 7.32 -1.66 8.64 -2 10 C-2.66 9.34 -3.32 8.68 -4 8 C-3.34 8 -2.68 8 -2 8 C-2.66 6.35 -3.32 4.7 -4 3 C-3.34 2.34 -2.68 1.68 -2 1 C-1.67 1.99 -1.34 2.98 -1 4 C-0.67 2.68 -0.34 1.36 0 0 Z " fill="#606060" transform="translate(56,53)"/>
<path d="M0 0 C1.65 0 3.3 0 5 0 C5.33 3.3 5.66 6.6 6 10 C3.36335259 7.36335259 1.744776 5.24029829 0 2 C0 1.34 0 0.68 0 0 Z " fill="#343434" transform="translate(40,34)"/>
<path d="M0 0 C5.94 0.33 11.88 0.66 18 1 C18 1.33 18 1.66 18 2 C8.595 2.495 8.595 2.495 -1 3 C-0.67 2.01 -0.34 1.02 0 0 Z " fill="#2E2E2E" transform="translate(47,90)"/>
<path d="M0 0 C2.64 0 5.28 0 8 0 C8.33 1.98 8.66 3.96 9 6 C7.68 5.34 6.36 4.68 5 4 C5.33 3.67 5.66 3.34 6 3 C4.02 2.34 2.04 1.68 0 1 C0 0.67 0 0.34 0 0 Z " fill="#6D6D6D" transform="translate(46,64)"/>
<path d="M0 0 C0.99 0 1.98 0 3 0 C3 0.66 3 1.32 3 2 C3.66 2 4.32 2 5 2 C4.625 4.4375 4.625 4.4375 4 7 C3.01 7.495 3.01 7.495 2 8 C2 6.35 2 4.7 2 3 C1.34 3 0.68 3 0 3 C0 2.01 0 1.02 0 0 Z " fill="#DEDEDE" transform="translate(56,50)"/>
<path d="M0 0 C0.66 0.99 1.32 1.98 2 3 C0.68 5.31 -0.64 7.62 -2 10 C-2.33 9.34 -2.66 8.68 -3 8 C-3.66 8 -4.32 8 -5 8 C-4.67 7.01 -4.34 6.02 -4 5 C-3.67 5.33 -3.34 5.66 -3 6 C-2.01 4.02 -1.02 2.04 0 0 Z " fill="#B2B2B2" transform="translate(64,44)"/>
</svg>
